<svg width="48" height="48" viewBox="0 0 48 48" fill="none" xmlns="http://www.w3.org/2000/svg"><circle cx="24" cy="24" r="24" fill="#1B1F79"/><path d="M24.131 40.4762C23.3647 40.4762 22.6235 40.3098 22.0437 39.9771L6.33348 30.9069C5.63771 30.5035 5.23438 29.8784 5.23438 29.1927C5.23438 28.4213 5.73351 27.6902 6.6007 27.1911L21.7715 18.4335C23.1731 17.6268 25.1747 17.5562 26.425 18.2772L42.1353 27.3474C42.831 27.7507 43.2344 28.3759 43.2344 29.0616C43.2344 29.833 42.7352 30.559 41.868 31.0632L26.6973 39.8208C25.941 40.2594 25.0184 40.4762 24.131 40.4762ZM22.9311 38.4343C23.6268 38.8326 24.9629 38.762 25.7998 38.278L40.9706 29.5204C41.3538 29.2985 41.4445 29.1019 41.4445 29.0616C41.4395 29.0515 41.3891 28.9759 41.2378 28.8902L25.5276 19.82C24.8369 19.4217 23.4958 19.4922 22.6588 19.9763L7.48804 28.7339C7.10487 28.9557 7.01413 29.1523 7.01413 29.1876C7.01917 29.1977 7.06957 29.2733 7.22083 29.359L22.9311 38.4343Z" fill="white"/><path d="M42.3361 23.4992V18.0793L30.1803 18.0742L25.9805 15.6491C25.0175 15.0945 23.3336 15.1601 22.2193 15.8054L18.2968 18.0692L6.13096 18.0641V23.6404C6.10575 24.0185 6.31246 24.3815 6.77631 24.6487L22.4865 33.7189C23.4495 34.2735 25.1335 34.208 26.2477 33.5626L41.4185 24.805C42.0638 24.4269 42.3714 23.9479 42.3361 23.4992Z" fill="#5559A4"/><path d="M24.2321 15.2754C23.5263 15.2905 22.7952 15.472 22.2154 15.8048L18.2929 18.0685L6.12705 18.0635V23.6397C6.10184 24.0179 6.30856 24.3809 6.7724 24.6481L22.4826 33.7183C22.9465 33.9855 23.5767 34.1065 24.2271 34.0914V15.2754H24.2321Z" fill="url(#paint0_radial_19303_81185)"/><path d="M7.50736 18.0605H6.13096V23.6368C6.10575 24.0149 6.31246 24.3779 6.77631 24.6451L7.50736 25.0686V18.0605Z" fill="#D4D8FF"/><path d="M22.7305 33.8346C23.5624 34.1926 24.7673 34.1724 25.7404 33.7993V27.4668H22.7305V33.8346Z" fill="#373B9C"/><path d="M22.4889 28.1578L6.77871 19.0876C5.81573 18.533 5.93672 17.5599 7.05096 16.9146L22.2217 8.15697C23.336 7.51162 25.0199 7.44607 25.9829 8.00067L41.6931 17.0709C42.6561 17.6255 42.5351 18.5985 41.4209 19.2439L26.2501 28.0015C25.1359 28.6468 23.4519 28.7174 22.4889 28.1578Z" fill="url(#paint1_linear_19303_81185)"/><path d="M41.4206 18.1748L26.2499 26.9324C25.1356 27.5777 23.4517 27.6433 22.4887 27.0887L6.77845 18.0185C6.56165 17.8924 6.40535 17.7513 6.29947 17.5899C5.96671 18.1244 6.11797 18.6991 6.77845 19.0823L22.4887 28.1525C23.4517 28.7071 25.1356 28.6415 26.2499 27.9962L41.4206 19.2386C42.2878 18.7395 42.55 18.0437 42.1718 17.4941C42.0206 17.7412 41.7735 17.9782 41.4206 18.1748Z" fill="white"/><path d="M36.5596 24.9304C36.5596 25.3337 36.2773 25.8278 35.9243 26.0295C35.5714 26.2312 35.2891 26.0699 35.2891 25.6615C35.2891 25.2581 35.5714 24.764 35.9243 24.5624C36.2773 24.3607 36.5596 24.5271 36.5596 24.9304Z" fill="#FF7F5C"/><path d="M38.5987 23.7507C38.5987 24.1541 38.3163 24.6482 37.9634 24.8498C37.6105 25.0515 37.3281 24.8902 37.3281 24.4818C37.3281 24.0784 37.6105 23.5843 37.9634 23.3827C38.3163 23.181 38.5987 23.3474 38.5987 23.7507Z" fill="#FF7F5C"/><path d="M40.6455 22.5758C40.6455 22.9792 40.3632 23.4733 40.0103 23.675C39.6573 23.8766 39.375 23.7153 39.375 23.3069C39.375 22.9036 39.6573 22.4095 40.0103 22.2078C40.3582 22.0061 40.6455 22.1675 40.6455 22.5758Z" fill="#FF7F5C"/><g clip-path="url(#clip0_19303_81185)"><path d="M24.355 24.4111C24.3572 24.3717 24.3303 24.3626 24.2962 24.3575C24.058 24.323 23.8612 24.2009 23.6759 24.0663C23.3387 23.8214 23.0341 23.538 22.7149 23.2723C22.442 23.0448 22.1629 22.8236 21.8934 22.5924C21.6371 22.3725 21.3655 22.1702 21.1225 21.9359C20.9508 21.7706 20.8373 21.5729 20.7698 21.3516C20.6961 21.1115 20.8379 20.7519 21.0622 20.6136C21.3616 20.4291 21.6642 20.2487 21.965 20.0651C22.2584 19.8868 22.5519 19.7071 22.8446 19.528C23.0344 19.4116 23.2157 19.2819 23.4302 19.2083C23.622 19.1426 23.8252 19.1335 24.0255 19.1487C24.4627 19.1834 24.856 19.3415 25.1996 19.6023C25.4087 19.7611 25.6016 19.9388 25.8018 20.1076C26.06 20.325 26.3182 20.5417 26.5773 20.7578C26.9236 21.0454 27.2829 21.3206 27.6151 21.6231C27.8709 21.8558 28.0428 22.1433 28.009 22.5008C27.9854 22.7504 27.8315 22.9198 27.622 23.0489C27.2267 23.2929 26.8309 23.5354 26.4345 23.777C26.1452 23.9531 25.8588 24.1346 25.5635 24.3012C25.3696 24.4106 25.1558 24.475 24.9222 24.454C24.8761 24.4499 24.8306 24.4558 24.7888 24.4773L24.3548 24.4118L24.355 24.4111ZM24.261 20.1369C24.2189 20.1306 24.1803 20.1404 24.1479 20.1583C24.0321 20.2226 23.9172 20.2905 23.8063 20.3613C23.51 20.5498 23.2072 20.7266 22.9067 20.9081C22.6544 21.0599 22.4035 21.2133 22.1524 21.3674C22.091 21.4051 22.0592 21.4337 22.1347 21.5091C22.3046 21.6769 22.4939 21.8242 22.6776 21.9741C22.9798 22.2195 23.2723 22.4755 23.5754 22.7195C23.852 22.9425 24.119 23.1755 24.3921 23.4022C24.4607 23.4588 24.5396 23.5019 24.6274 23.4462C24.6955 23.4032 24.7653 23.3632 24.8338 23.3224C25.1526 23.133 25.4658 22.9363 25.7821 22.7437C26.0575 22.5755 26.3343 22.409 26.6109 22.2431C26.6884 22.1965 26.7124 22.146 26.6326 22.0793C26.5326 21.9945 26.4336 21.9078 26.3326 21.8243C26.1624 21.6835 25.9894 21.5458 25.82 21.4043C25.5675 21.1935 25.3185 20.9796 25.0669 20.7675C24.845 20.5805 24.6221 20.3954 24.4 20.2091C24.3592 20.1745 24.3101 20.1557 24.2615 20.1384L24.261 20.1369Z" fill="white" stroke="white" stroke-width="0.5"/><path d="M22.218 17.7119C22.1926 17.9391 22.0606 18.1005 21.85 18.2223C21.5809 18.3779 21.323 18.5523 21.0581 18.7143C20.8709 18.829 20.6776 18.9342 20.4884 19.0472C20.2617 19.1822 20.0367 19.3203 19.8119 19.4577C19.5952 19.5907 19.3572 19.638 19.1008 19.6356C18.8829 19.6333 18.6713 19.5943 18.4658 19.5349C18.2723 19.4794 18.0889 19.3913 17.9323 19.2681C17.5774 18.9885 17.2277 18.7033 16.881 18.4136C16.4572 18.0596 16.0342 17.7043 15.6094 17.3516C15.4227 17.1969 15.2319 17.0402 15.1152 16.8193C14.9641 16.532 14.9191 16.2494 15.1126 15.9707C15.1951 15.8516 15.3195 15.7701 15.4478 15.697C15.805 15.4935 16.1519 15.275 16.5002 15.0573C16.7549 14.8988 17.026 14.7648 17.2789 14.6039C17.4086 14.5211 17.5384 14.4432 17.6873 14.401C17.9748 14.3199 18.2637 14.3286 18.5586 14.3909C18.7952 14.4415 19.0064 14.5373 19.2114 14.6543C19.3296 14.7219 19.4342 14.8059 19.538 14.8905C19.6743 15.0006 19.8043 15.1176 19.9389 15.2296C20.0825 15.3501 20.2287 15.4682 20.3732 15.5881C20.6244 15.7973 20.8784 16.0034 21.1245 16.2168C21.4277 16.4801 21.7761 16.6997 22.0216 17.0204C22.173 17.2174 22.2675 17.4129 22.218 17.7119ZM18.5026 15.3337C18.4614 15.3261 18.4213 15.3165 18.3804 15.3416C18.0272 15.5578 17.6732 15.7738 17.3187 15.9884C17.023 16.1678 16.7249 16.3432 16.431 16.525C16.2869 16.6142 16.2937 16.6628 16.4272 16.7668C16.6178 16.9157 16.803 17.0702 16.989 17.2248C17.1552 17.3629 17.3179 17.5048 17.4841 17.6429C17.6551 17.7838 17.8297 17.9203 17.9999 18.0619C18.2095 18.2371 18.4136 18.4193 18.626 18.5907C18.6974 18.6484 18.7788 18.6649 18.8771 18.6037C19.3074 18.3344 19.7444 18.0747 20.1795 17.8126C20.3934 17.6834 20.6092 17.5567 20.8238 17.4284C20.9274 17.3665 20.935 17.3357 20.844 17.2551C20.6678 17.0992 20.4882 16.947 20.3067 16.7966C20.0586 16.5914 19.8058 16.3926 19.5585 16.1868C19.2322 15.9144 18.9102 15.6376 18.5875 15.3614C18.5612 15.339 18.53 15.3435 18.5017 15.3343L18.5026 15.3337Z" fill="white" stroke="white" stroke-width="0.5"/><path d="M29.3636 16.0483C29.6419 16.1074 29.932 16.2066 30.1959 16.3857C30.4019 16.5262 30.5833 16.6915 30.7752 16.8463C31.0226 17.0464 31.269 17.2485 31.5128 17.4524C31.7679 17.6657 32.0202 17.8829 32.2743 18.0976C32.4435 18.2404 32.6206 18.3752 32.7839 18.5228C32.9831 18.7028 33.1289 18.9274 33.1523 19.1855C33.1812 19.5055 33.0465 19.7639 32.7439 19.9351C32.4282 20.1136 32.1258 20.3125 31.8163 20.4998C31.4994 20.6916 31.1789 20.8779 30.8644 21.0729C30.7211 21.1622 30.5771 21.2407 30.4069 21.2769C30.0787 21.3468 29.7567 21.336 29.4363 21.2265C29.2196 21.1526 29.0134 21.0582 28.828 20.9286C28.6898 20.8317 28.5601 20.7218 28.437 20.608C28.3048 20.4857 28.159 20.3791 28.0231 20.2619C27.8081 20.0781 27.5915 19.8954 27.3738 19.7147C27.1627 19.5392 26.943 19.3724 26.7372 19.1914C26.4837 18.9676 26.1939 18.7782 26.0322 18.4673C25.8423 18.1024 25.8906 17.6887 26.2834 17.4458C26.5577 17.276 26.8436 17.1222 27.1127 16.9474C27.5109 16.6889 27.9241 16.4541 28.3284 16.2043C28.6337 16.0158 28.9792 15.9989 29.3637 16.0476L29.3636 16.0483ZM29.6811 20.3363C29.759 20.3516 29.8053 20.2904 29.8582 20.2592C30.1898 20.064 30.5165 19.8609 30.8457 19.6617C31.1455 19.4801 31.447 19.3016 31.7455 19.1184C31.8543 19.0516 31.8515 19.0014 31.7525 18.9197C31.5367 18.7414 31.3235 18.5606 31.1086 18.3811C30.9036 18.2094 30.6993 18.0385 30.4935 17.8674C30.1915 17.6164 29.8876 17.3673 29.5874 17.1137C29.4247 16.9768 29.403 16.9728 29.2137 17.0865C29.0847 17.1644 28.9526 17.2383 28.8242 17.3171C28.4916 17.5193 28.1597 17.7217 27.829 17.9263C27.6588 18.0315 27.4832 18.128 27.319 18.2419C27.2453 18.2926 27.241 18.336 27.3042 18.3896C27.5785 18.623 27.8545 18.8551 28.1307 19.0859C28.3786 19.2925 28.63 19.4953 28.8788 19.7013C29.1197 19.9005 29.3596 20.1009 29.5987 20.3019C29.6244 20.3235 29.6517 20.3298 29.681 20.337L29.6811 20.3363Z" fill="white" stroke="white" stroke-width="0.5"/><path d="M22.2857 15.2779C22.0342 15.2528 21.8468 15.152 21.6997 14.9805C21.5071 14.7567 21.5161 14.5 21.8272 14.3322C22.1011 14.1844 22.3626 14.0155 22.6282 13.8536C22.66 13.8343 22.6945 13.8224 22.7263 13.8037C22.8351 13.7412 22.7938 13.6809 22.7273 13.6247C22.4834 13.4209 22.2333 13.2239 21.9912 13.0182C21.8195 12.8721 21.6301 12.7447 21.485 12.57C21.382 12.4457 21.3602 12.3052 21.417 12.1694C21.475 12.031 21.6151 11.9732 21.7648 11.9553C22.1253 11.9122 22.3965 12.0726 22.6496 12.3041C22.8048 12.4463 22.9735 12.5776 23.1364 12.7131C23.3105 12.8581 23.487 13.0013 23.6594 13.1482C23.7028 13.1853 23.7329 13.1969 23.7878 13.1625C24.1335 12.9474 24.4797 12.7337 24.8295 12.5255C24.9942 12.4273 25.1802 12.4341 25.3611 12.4798C25.572 12.533 25.7473 12.6355 25.8833 12.8117C26.0156 12.983 25.9997 13.2508 25.789 13.3683C25.4512 13.5556 25.1253 13.7631 24.7933 13.9611C24.7322 13.9974 24.7165 14.0178 24.7872 14.0754C25.1791 14.3954 25.5664 14.7211 25.952 15.0487C26.0565 15.1377 26.141 15.2422 26.1605 15.3837C26.185 15.5559 26.0882 15.7105 25.9102 15.7591C25.5928 15.8456 25.3118 15.7698 25.0583 15.5709C24.7537 15.3316 24.4703 15.0699 24.1631 14.833C24.0754 14.765 23.9918 14.6892 23.9096 14.6142C23.8567 14.5664 23.8151 14.5566 23.7414 14.6023C23.3874 14.8234 23.0291 15.0388 22.6656 15.2442C22.5472 15.311 22.4046 15.3214 22.2864 15.2787L22.2857 15.2779Z" fill="white" stroke="white" stroke-width="0.5"/></g><g clip-path="url(#clip1_19303_81185)"><path d="M24.9526 23.4033C24.9549 23.3638 24.928 23.3548 24.8939 23.3497C24.6557 23.3152 24.4588 23.1931 24.2735 23.0585C23.9364 22.8135 23.6318 22.5302 23.3126 22.2645C23.0396 22.037 22.7605 21.8158 22.4911 21.5846C22.2348 21.3647 21.9632 21.1623 21.7202 20.928C21.5484 20.7628 21.435 20.5651 21.3674 20.3438C21.2938 20.1037 21.4356 19.7441 21.6598 19.6058C21.9593 19.4213 22.2619 19.2409 22.5627 19.0573C22.856 18.879 23.1496 18.6993 23.4423 18.5202C23.632 18.4038 23.8134 18.274 24.0279 18.2005C24.2196 18.1348 24.4229 18.1256 24.6232 18.1409C25.0603 18.1756 25.4536 18.3337 25.7973 18.5945C26.0064 18.7533 26.1993 18.931 26.3994 19.0998C26.6576 19.3172 26.9159 19.5339 27.175 19.75C27.5213 20.0375 27.8806 20.3128 28.2127 20.6153C28.4686 20.848 28.6405 21.1355 28.6066 21.493C28.5831 21.7426 28.4291 21.912 28.2197 22.0411C27.8244 22.2851 27.4286 22.5275 27.0322 22.7692C26.7429 22.9453 26.4565 23.1267 26.1612 23.2934C25.9673 23.4028 25.7535 23.4672 25.5199 23.4462C25.4737 23.4421 25.4283 23.448 25.3865 23.4695L24.9525 23.404L24.9526 23.4033ZM24.8586 19.1291C24.8166 19.1228 24.778 19.1326 24.7456 19.1505C24.6297 19.2147 24.5148 19.2827 24.404 19.3535C24.1076 19.542 23.8048 19.7188 23.5043 19.9003C23.2521 20.0521 23.0011 20.2055 22.75 20.3596C22.6887 20.3973 22.6569 20.4259 22.7324 20.5013C22.9023 20.6691 23.0916 20.8163 23.2753 20.9663C23.5775 21.2117 23.8699 21.4676 24.1731 21.7117C24.4497 21.9347 24.7166 22.1676 24.9897 22.3944C25.0584 22.4509 25.1372 22.4941 25.225 22.4384C25.2931 22.3953 25.363 22.3554 25.4315 22.3145C25.7503 22.1252 26.0634 21.9285 26.3797 21.7359C26.6552 21.5677 26.9319 21.4011 27.2086 21.2353C27.2861 21.1887 27.31 21.1382 27.2303 21.0715C27.1303 20.9867 27.0313 20.9 26.9303 20.8165C26.76 20.6756 26.5871 20.5379 26.4177 20.3965C26.1652 20.1857 25.9161 19.9718 25.6646 19.7597C25.4427 19.5727 25.2197 19.3876 24.9977 19.2013C24.9569 19.1667 24.9078 19.1479 24.8592 19.1306L24.8586 19.1291Z" fill="#1B1F79" stroke="#1B1F79" stroke-width="0.75"/><path d="M22.8117 16.7041C22.7863 16.9313 22.6544 17.0927 22.4438 17.2145C22.1746 17.3701 21.9168 17.5445 21.6519 17.7065C21.4646 17.8212 21.2714 17.9264 21.0821 18.0393C20.8554 18.1744 20.6305 18.3125 20.4057 18.4499C20.1889 18.5829 19.951 18.6302 19.6945 18.6278C19.4767 18.6255 19.2651 18.5865 19.0595 18.527C18.866 18.4716 18.6826 18.3835 18.526 18.2603C18.1711 17.9807 17.8215 17.6955 17.4748 17.4058C17.0509 17.0518 16.628 16.6965 16.2032 16.3438C16.0165 16.1891 15.8256 16.0324 15.709 15.8114C15.5578 15.5242 15.5129 15.2415 15.7063 14.9629C15.7889 14.8438 15.9132 14.7623 16.0415 14.6892C16.3988 14.4857 16.7457 14.2672 17.0939 14.0495C17.3487 13.891 17.6198 13.757 17.8726 13.596C18.0024 13.5132 18.1321 13.4354 18.281 13.3932C18.5686 13.3121 18.8575 13.3208 19.1524 13.3831C19.389 13.4337 19.6001 13.5295 19.8052 13.6465C19.9234 13.714 20.028 13.7981 20.1317 13.8827C20.268 13.9928 20.3981 14.1098 20.5326 14.2218C20.6762 14.3423 20.8225 14.4603 20.9669 14.5802C21.2182 14.7895 21.4721 14.9955 21.7183 15.209C22.0215 15.4722 22.3698 15.6919 22.6154 16.0126C22.7668 16.2096 22.8612 16.4051 22.8117 16.7041ZM19.0963 14.3259C19.0552 14.3183 19.0151 14.3086 18.9742 14.3338C18.6209 14.5499 18.267 14.766 17.9125 14.9806C17.6167 15.16 17.3186 15.3354 17.0248 15.5172C16.8807 15.6063 16.8875 15.655 17.021 15.759C17.2115 15.9079 17.3968 16.0624 17.5828 16.217C17.749 16.3551 17.9117 16.4969 18.0779 16.635C18.2489 16.776 18.4235 16.9125 18.5936 17.0541C18.8032 17.2293 19.0073 17.4115 19.2197 17.5829C19.2912 17.6406 19.3726 17.6571 19.4709 17.5959C19.9011 17.3266 20.3381 17.0669 20.7733 16.8048C20.9872 16.6756 21.203 16.5489 21.4175 16.4206C21.5211 16.3587 21.5287 16.3279 21.4377 16.2473C21.2616 16.0914 21.0819 15.9391 20.9005 15.7888C20.6523 15.5836 20.3995 15.3848 20.1522 15.179C19.8259 14.9066 19.504 14.6298 19.1812 14.3536C19.1549 14.3312 19.1238 14.3357 19.0955 14.3265L19.0963 14.3259Z" fill="#1B1F79" stroke="#1B1F79" stroke-width="0.75"/><path d="M29.9612 15.0405C30.2396 15.0995 30.5297 15.1987 30.7936 15.3779C30.9995 15.5184 31.1809 15.6837 31.3728 15.8385C31.6202 16.0386 31.8666 16.2407 32.1105 16.4446C32.3656 16.6579 32.6178 16.8751 32.8719 17.0898C33.0412 17.2326 33.2183 17.3673 33.3816 17.515C33.5808 17.695 33.7265 17.9196 33.75 18.1777C33.7789 18.4977 33.6442 18.7561 33.3415 18.9273C33.0259 19.1058 32.7235 19.3047 32.414 19.492C32.097 19.6838 31.7765 19.87 31.4621 20.0651C31.3188 20.1544 31.1748 20.2329 31.0046 20.2691C30.6764 20.339 30.3544 20.3282 30.0339 20.2187C29.8172 20.1448 29.611 20.0504 29.4257 19.9208C29.2874 19.8239 29.1578 19.714 29.0347 19.6002C28.9024 19.4779 28.7567 19.3713 28.6207 19.2541C28.4058 19.0703 28.1891 18.8876 27.9714 18.7069C27.7604 18.5314 27.5406 18.3646 27.3349 18.1836C27.0814 17.9598 26.7915 17.7704 26.6298 17.4595C26.4399 17.0945 26.4882 16.6809 26.8811 16.438C27.1553 16.2682 27.4413 16.1144 27.7104 15.9396C28.1086 15.6811 28.5218 15.4462 28.9261 15.1965C29.2314 15.0079 29.5768 14.9911 29.9613 15.0398L29.9612 15.0405ZM30.2788 19.3285C30.3566 19.3438 30.403 19.2826 30.4559 19.2514C30.7874 19.0562 31.1142 18.853 31.4433 18.6538C31.7431 18.4723 32.0447 18.2938 32.3432 18.1106C32.452 18.0438 32.4491 17.9936 32.3501 17.9118C32.1343 17.7336 31.9211 17.5528 31.7062 17.3732C31.5013 17.2016 31.297 17.0307 31.0912 16.8596C30.7891 16.6086 30.4853 16.3594 30.1851 16.1059C30.0224 15.969 30.0007 15.965 29.8114 16.0787C29.6823 16.1566 29.5502 16.2305 29.4218 16.3093C29.0892 16.5115 28.7574 16.7139 28.4267 16.9185C28.2564 17.0236 28.0808 17.1202 27.9167 17.234C27.843 17.2848 27.8387 17.3282 27.9018 17.3818C28.1761 17.6151 28.4521 17.8473 28.7283 18.0781C28.9762 18.2846 29.2277 18.4875 29.4764 18.6935C29.7173 18.8926 29.9573 19.0931 30.1964 19.2941C30.2221 19.3157 30.2493 19.322 30.2786 19.3292L30.2788 19.3285Z" fill="#1B1F79" stroke="#1B1F79" stroke-width="0.75"/><path d="M22.8795 14.2701C22.628 14.245 22.4405 14.1442 22.2935 13.9727C22.1008 13.7489 22.1099 13.4922 22.4209 13.3243C22.6948 13.1765 22.9563 13.0077 23.2219 12.8458C23.2538 12.8264 23.2882 12.8146 23.32 12.7959C23.4289 12.7334 23.3875 12.6731 23.321 12.6169C23.0771 12.413 22.827 12.2161 22.5849 12.0104C22.4132 11.8643 22.2239 11.7369 22.0788 11.5622C21.9758 11.4379 21.9539 11.2974 22.0108 11.1616C22.0688 11.0232 22.2088 10.9654 22.3585 10.9475C22.719 10.9044 22.9903 11.0648 23.2433 11.2963C23.3985 11.4384 23.5672 11.5698 23.7301 11.7053C23.9042 11.8503 24.0808 11.9935 24.2531 12.1403C24.2965 12.1775 24.3267 12.1891 24.3816 12.1547C24.7272 11.9395 25.0734 11.7258 25.4232 11.5177C25.5879 11.4195 25.774 11.4262 25.9549 11.472C26.1658 11.5251 26.3411 11.6276 26.4771 11.8039C26.6093 11.9752 26.5934 12.243 26.3827 12.3605C26.045 12.5478 25.719 12.7553 25.3871 12.9533C25.3259 12.9896 25.3103 13.01 25.381 13.0676C25.7729 13.3876 26.1602 13.7133 26.5457 14.0409C26.6503 14.1299 26.7347 14.2344 26.7542 14.3759C26.7787 14.5481 26.6819 14.7027 26.5039 14.7513C26.1865 14.8378 25.9055 14.762 25.652 14.5631C25.3474 14.3238 25.064 14.062 24.7568 13.8252C24.6691 13.7572 24.5856 13.6813 24.5033 13.6064C24.4504 13.5586 24.4089 13.5488 24.3352 13.5945C23.9812 13.8156 23.6229 14.031 23.2594 14.2364C23.141 14.3031 22.9984 14.3136 22.8801 14.2709L22.8795 14.2701Z" fill="#1B1F79" stroke="#1B1F79" stroke-width="0.75"/></g><defs><radialGradient id="paint0_radial_19303_81185" cx="0" cy="0" r="1" gradientUnits="userSpaceOnUse" gradientTransform="translate(7.12452 16.4816) scale(19.8604 19.8604)"><stop stop-color="#D4D8FF"/><stop offset="1" stop-color="#373B9C"/></radialGradient><linearGradient id="paint1_linear_19303_81185" x1="10.8743" y1="10.1147" x2="41.9836" y2="28.6616" gradientUnits="userSpaceOnUse"><stop stop-color="#D4E0FF"/><stop offset="0.796875" stop-color="#6361BB"/></linearGradient><clipPath id="clip0_19303_81185"><rect width="21.8379" height="14.9662" fill="white" transform="translate(14.3164 9.2793) rotate(8.57544)"/></clipPath><clipPath id="clip1_19303_81185"><rect width="21.0703" height="15.6834" fill="white" transform="translate(15.3398 8.00195) rotate(8.57544)"/></clipPath></defs></svg>