<svg width="48" height="48" viewBox="0 0 48 48" fill="none" xmlns="http://www.w3.org/2000/svg"><circle cx="24" cy="24" r="24" fill="#1B1F79"/><path d="M24.131 40.4742C23.3647 40.4742 22.6235 40.3079 22.0437 39.9751L6.33348 30.9049C5.63771 30.5016 5.23438 29.8764 5.23438 29.1907C5.23438 28.4193 5.73351 27.6883 6.6007 27.1891L21.7715 18.4315C23.1731 17.6248 25.1747 17.5542 26.425 18.2752L42.1353 27.3454C42.831 27.7488 43.2344 28.3739 43.2344 29.0596C43.2344 29.831 42.7352 30.557 41.868 31.0612L26.6973 39.8188C25.941 40.2574 25.0184 40.4742 24.131 40.4742ZM22.9311 38.4323C23.6268 38.8306 24.9629 38.76 25.7998 38.276L40.9706 29.5184C41.3538 29.2966 41.4445 29.1 41.4445 29.0596C41.4395 29.0495 41.3891 28.9739 41.2378 28.8882L25.5276 19.818C24.8369 19.4197 23.4958 19.4903 22.6588 19.9743L7.48804 28.7319C7.10487 28.9537 7.01413 29.1504 7.01413 29.1857C7.01917 29.1958 7.06957 29.2714 7.22083 29.3571L22.9311 38.4323Z" fill="white"/><path d="M42.3361 23.4992V18.0793L30.1803 18.0742L25.9805 15.6491C25.0175 15.0945 23.3336 15.1601 22.2193 15.8054L18.2968 18.0692L6.13096 18.0641V23.6404C6.10575 24.0185 6.31246 24.3815 6.77631 24.6487L22.4865 33.7189C23.4495 34.2735 25.1335 34.208 26.2477 33.5626L41.4185 24.805C42.0638 24.4269 42.3714 23.9479 42.3361 23.4992Z" fill="#5559A4"/><path d="M24.2321 15.2754C23.5263 15.2905 22.7952 15.472 22.2154 15.8048L18.2929 18.0685L6.12705 18.0635V23.6397C6.10184 24.0179 6.30856 24.3809 6.7724 24.6481L22.4826 33.7183C22.9465 33.9855 23.5767 34.1065 24.2271 34.0914V15.2754H24.2321Z" fill="url(#paint0_radial_19303_81281)"/><path d="M7.50736 18.0586H6.13096V23.6348C6.10575 24.013 6.31246 24.376 6.77631 24.6432L7.50736 25.0667V18.0586Z" fill="#D4D8FF"/><path d="M22.7305 33.8346C23.5624 34.1926 24.7673 34.1724 25.7404 33.7993V27.4668H22.7305V33.8346Z" fill="#373B9C"/><path d="M22.4889 28.1578L6.77871 19.0876C5.81573 18.533 5.93672 17.5599 7.05096 16.9146L22.2217 8.15697C23.336 7.51162 25.0199 7.44607 25.9829 8.00067L41.6931 17.0709C42.6561 17.6255 42.5351 18.5985 41.4209 19.2439L26.2501 28.0015C25.1359 28.6468 23.4519 28.7174 22.4889 28.1578Z" fill="url(#paint1_linear_19303_81281)"/><path d="M41.4206 18.1748L26.2499 26.9324C25.1356 27.5777 23.4517 27.6433 22.4887 27.0887L6.77845 18.0185C6.56165 17.8924 6.40535 17.7513 6.29947 17.5899C5.96671 18.1244 6.11797 18.6991 6.77845 19.0823L22.4887 28.1525C23.4517 28.7071 25.1356 28.6415 26.2499 27.9962L41.4206 19.2386C42.2878 18.7395 42.55 18.0437 42.1718 17.4941C42.0206 17.7412 41.7735 17.9782 41.4206 18.1748Z" fill="white"/><path d="M36.5596 24.9304C36.5596 25.3337 36.2773 25.8278 35.9243 26.0295C35.5714 26.2312 35.2891 26.0699 35.2891 25.6615C35.2891 25.2581 35.5714 24.764 35.9243 24.5624C36.2773 24.3607 36.5596 24.5271 36.5596 24.9304Z" fill="#FF7F5C"/><path d="M38.5987 23.7507C38.5987 24.1541 38.3163 24.6482 37.9634 24.8498C37.6105 25.0515 37.3281 24.8902 37.3281 24.4818C37.3281 24.0784 37.6105 23.5843 37.9634 23.3827C38.3163 23.181 38.5987 23.3474 38.5987 23.7507Z" fill="#FF7F5C"/><path d="M40.6455 22.5758C40.6455 22.9792 40.3632 23.4733 40.0103 23.675C39.6573 23.8766 39.375 23.7153 39.375 23.3069C39.375 22.9036 39.6573 22.4095 40.0103 22.2078C40.3582 22.0061 40.6455 22.1675 40.6455 22.5758Z" fill="#FF7F5C"/><g clip-path="url(#clip0_19303_81281)"><path d="M14.0012 16.6579C14.0774 16.6652 14.0536 16.6021 14.0524 16.5693C14.0381 16.1117 14.1975 15.705 14.3868 15.3032C14.7093 14.6174 15.1924 14.0687 15.7541 13.5807C16.1147 13.2676 16.5039 12.9957 16.9073 12.7456C17.1917 12.5696 17.4821 12.4009 17.7891 12.271C18.1176 12.1326 18.4472 11.9942 18.784 11.8765C19.0137 11.7963 19.2434 11.715 19.4754 11.6446C19.7575 11.5596 20.0431 11.4795 20.3323 11.414C20.7274 11.3242 21.1248 11.2392 21.5247 11.1846C21.9876 11.1202 22.4529 11.0644 22.9218 11.045C23.3502 11.0268 23.7775 10.9879 24.2059 11.0037C24.8354 11.0268 25.4649 11.0571 26.0909 11.1457C26.3646 11.1846 26.6395 11.227 26.9144 11.261C27.0965 11.2841 27.2762 11.3375 27.4571 11.3776C27.8831 11.4722 28.3044 11.5888 28.7209 11.7187C29.0232 11.8133 29.3183 11.9287 29.6135 12.0428C29.9193 12.1617 30.2192 12.2952 30.5131 12.4421C30.7333 12.5526 30.9475 12.6776 31.1581 12.8063C31.4925 13.0102 31.8115 13.2396 32.1114 13.4946C32.4291 13.7652 32.7183 14.0639 32.9861 14.388C33.2681 14.7315 33.5133 15.1005 33.6727 15.5096C33.831 15.9126 33.944 16.335 33.95 16.7842C33.956 17.2309 33.8941 17.6606 33.7572 18.0794C33.6263 18.4799 33.4204 18.8405 33.1765 19.1828C32.9361 19.5214 32.6695 19.831 32.3684 20.1126C32.1673 20.3007 31.9483 20.467 31.7282 20.6321C31.4104 20.8713 31.0713 21.074 30.7262 21.2646C30.4358 21.4248 30.124 21.4818 29.792 21.4139C29.5528 21.3653 29.3433 21.2828 29.21 21.0558C29.1517 20.9562 29.1517 20.87 29.21 20.7742C29.2957 20.6321 29.4207 20.5374 29.5623 20.4634C29.93 20.2728 30.2739 20.0458 30.5988 19.7885C30.7404 19.6768 30.8713 19.5506 30.9999 19.4243C31.0558 19.3697 31.0677 19.3066 30.9868 19.2435C30.813 19.1099 30.6155 19.0177 30.431 18.9036C30.0978 18.6972 29.7575 18.5006 29.4183 18.3027C29.1386 18.14 28.8566 17.9822 28.5769 17.8196C28.5198 17.7868 28.4555 17.7552 28.4115 17.7152C28.2401 17.5659 28.1342 17.6958 28.0081 17.7844C27.7772 17.9483 27.5416 18.1036 27.3048 18.2602C26.9287 18.5079 26.5396 18.7324 26.1421 18.94C25.8719 19.0808 25.6042 19.224 25.3257 19.3503C25.0877 19.4583 24.8604 19.5809 24.6521 19.7569C24.4451 19.9317 24.1702 19.9876 23.8929 19.9621C23.7358 19.9475 23.5823 19.9111 23.4252 19.8965C23.2038 19.8759 23.0361 19.7581 22.8968 19.5991C22.8004 19.4899 22.6874 19.4073 22.5672 19.3345C22.2423 19.1366 21.9126 18.9461 21.5854 18.7531C21.1534 18.4981 20.7202 18.2457 20.2882 17.9907C20.2275 17.9543 20.1645 17.9215 20.1085 17.8803C19.9955 17.7965 19.9217 17.8463 19.8384 17.9264C19.5706 18.1874 19.335 18.4763 19.0994 18.7664C18.7971 19.1378 18.5436 19.5409 18.3199 19.9657C18.2818 20.0385 18.2437 20.1138 18.2104 20.1891C18.1628 20.2947 18.2104 20.3748 18.3092 20.4282C18.4341 20.4974 18.5698 20.5508 18.6662 20.6673C18.8292 20.8652 18.8637 21.0291 18.6126 21.233C18.3187 21.4697 17.9771 21.4794 17.6225 21.4175C17.3845 21.3762 17.187 21.2427 16.9846 21.1274C16.6681 20.9465 16.3646 20.7414 16.0754 20.5156C15.6911 20.2146 15.3352 19.8844 15.0223 19.5057C14.7914 19.2265 14.5855 18.9303 14.426 18.6062C14.219 18.185 14.0369 17.7504 14.0512 17.2612C14.0512 17.2224 14.0655 17.1702 14 17.1677V16.6579H14.0012ZM23.956 18.622C24.0297 18.6462 24.0881 18.577 24.1595 18.5491C24.4451 18.4387 24.7188 18.3003 24.9842 18.1522C25.3816 17.9325 25.7767 17.7043 26.1564 17.4494C26.373 17.3037 26.5907 17.158 26.8002 17.0014C26.9239 16.9092 26.9156 16.8072 26.7776 16.7405C26.6395 16.6749 26.5146 16.5887 26.3837 16.5135C26.1135 16.3569 25.8481 16.1894 25.578 16.0303C25.1246 15.7633 24.6712 15.4962 24.2154 15.234C24.1154 15.177 24.0143 15.1102 23.8834 15.194C23.7632 15.2717 23.6263 15.3214 23.4942 15.3797C23.167 15.5266 22.8575 15.705 22.5469 15.8822C22.3185 16.0121 22.0935 16.1481 21.8734 16.2962C21.6175 16.4685 21.3533 16.6263 21.1177 16.8278C21.0201 16.9116 21.0249 16.9456 21.1427 17.0148C21.4569 17.1993 21.7722 17.3826 22.0852 17.5671C22.3375 17.7164 22.5886 17.8681 22.8397 18.0199C23.1122 18.1837 23.3824 18.35 23.6584 18.5066C23.7465 18.5564 23.8274 18.6341 23.9548 18.622H23.956ZM19.7099 16.1335C19.7491 16.1226 19.792 16.1274 19.8289 16.1007C20.0585 15.9405 20.2858 15.7779 20.5179 15.6225C20.7297 15.4805 20.9439 15.3421 21.1617 15.211C21.3569 15.0944 21.5556 14.9852 21.7567 14.8784C22.0055 14.7473 22.2542 14.6162 22.5077 14.496C22.566 14.4681 22.6314 14.4572 22.641 14.3843C22.6505 14.3091 22.5874 14.2726 22.535 14.2411C22.2006 14.0408 21.8639 13.8442 21.5283 13.6451C21.057 13.3647 20.5869 13.0843 20.1169 12.8026C19.98 12.7213 19.855 12.68 19.6884 12.7602C19.5385 12.8318 19.379 12.8961 19.2207 12.952C18.8173 13.0964 18.4448 13.3064 18.0783 13.5249C17.7808 13.7033 17.4964 13.9048 17.2346 14.1355C17.1536 14.2071 17.0715 14.2787 16.9977 14.3576C16.9323 14.4292 16.924 14.513 17.0168 14.5688C17.2286 14.6987 17.4428 14.8225 17.657 14.9476C17.92 15.1005 18.1866 15.2486 18.4472 15.404C18.8292 15.6322 19.21 15.8665 19.5897 16.0995C19.6277 16.1226 19.6706 16.1165 19.7099 16.1311V16.1335ZM15.7458 16.9322C15.7589 17.2454 15.8089 17.5683 15.916 17.8718C16.0231 18.174 16.1671 18.4642 16.3539 18.7276C16.4741 18.8975 16.6014 19.0626 16.7514 19.207C16.7811 19.2362 16.8264 19.2944 16.8633 19.2398C16.8942 19.1949 16.937 19.1621 16.9644 19.1148C17.1739 18.7421 17.4333 18.4071 17.707 18.0818C17.9629 17.7771 18.2354 17.487 18.5174 17.2078C18.6103 17.1155 18.6055 16.9954 18.5008 16.9286C18.302 16.8011 18.0985 16.681 17.895 16.5608C17.6261 16.403 17.3524 16.2525 17.0846 16.0935C16.8002 15.9247 16.5205 15.7475 16.2361 15.5788C16.1766 15.5436 16.1135 15.5521 16.0612 15.62C16.0112 15.6832 16.0029 15.7584 15.9743 15.8276C15.8267 16.176 15.7648 16.5426 15.747 16.9335L15.7458 16.9322ZM32.203 16.8388C32.2161 16.7781 32.1673 16.6725 32.1697 16.562C32.1744 16.369 32.1114 16.1869 32.0554 16.0085C31.9805 15.7657 31.8746 15.5314 31.7448 15.3117C31.5913 15.0483 31.4081 14.808 31.1879 14.598C31.1224 14.5361 31.0725 14.5494 31.0237 14.615C31.0011 14.6453 30.9737 14.672 30.9558 14.7048C30.7607 15.0532 30.5143 15.3651 30.268 15.6759C29.9967 16.017 29.692 16.3265 29.3909 16.6397C29.3136 16.7198 29.3255 16.7781 29.423 16.8363C29.642 16.9662 29.861 17.0998 30.0811 17.2296C30.3763 17.4044 30.6726 17.5756 30.9665 17.7504C31.1998 17.8888 31.433 18.0284 31.6639 18.1692C31.8293 18.2699 31.8615 18.2602 31.9531 18.0794C31.9805 18.0259 31.9828 17.964 32.0066 17.9131C32.1578 17.5889 32.1721 17.2394 32.2018 16.8388H32.203ZM23.9964 12.0683C23.5311 12.0755 23.0646 12.0415 22.6029 12.1217C22.3613 12.1629 22.115 12.1557 21.8769 12.22C21.8377 12.2309 21.8043 12.2443 21.7948 12.2868C21.7841 12.3365 21.8258 12.3511 21.8579 12.3705C22.0138 12.464 22.1697 12.5562 22.3256 12.6497C22.6493 12.8451 22.9765 13.0357 23.3002 13.2299C23.5787 13.3962 23.8584 13.565 24.1464 13.7155C24.2035 13.7458 24.2547 13.758 24.3225 13.7325C24.5617 13.6439 24.8033 13.5589 25.046 13.4824C25.528 13.3295 26.01 13.1777 26.5015 13.0515C26.8966 12.9495 27.2929 12.85 27.6903 12.7577C27.7427 12.7456 27.8082 12.7407 27.8165 12.674C27.826 12.5963 27.7498 12.5987 27.7034 12.5817C27.3036 12.43 26.8799 12.3778 26.4682 12.2746C26.4206 12.2625 26.3718 12.2515 26.323 12.2479C26.0885 12.2297 25.8589 12.1714 25.6232 12.1544C25.3888 12.1374 25.1555 12.084 24.9211 12.0731C24.6141 12.0585 24.3046 12.0695 23.9964 12.0695V12.0683ZM27.9724 15.9466C28.0105 15.9514 28.0497 15.9259 28.0819 15.892C28.1283 15.8446 28.1675 15.79 28.2163 15.7451C28.4424 15.5351 28.6329 15.2923 28.8221 15.0495C28.9625 14.8687 29.0946 14.6805 29.2219 14.4887C29.3957 14.2277 29.5551 13.9583 29.6872 13.6718C29.7491 13.5383 29.717 13.497 29.5682 13.497C29.3481 13.497 29.1386 13.5735 28.922 13.6062C28.5115 13.6694 28.1021 13.7531 27.7022 13.8648C27.2929 13.9789 26.8787 14.0724 26.4765 14.2132C26.3563 14.2544 26.2301 14.2775 26.1088 14.3163C25.9719 14.36 25.8339 14.405 25.7018 14.4632C25.5828 14.5154 25.5851 14.564 25.6946 14.6368C25.7636 14.6817 25.8327 14.7266 25.9041 14.7679C26.1706 14.9221 26.4408 15.0714 26.7062 15.2292C27.043 15.4283 27.375 15.637 27.7141 15.8313C27.7915 15.8762 27.8629 15.9442 27.9724 15.9466Z" fill="white"/><path d="M21.8325 21.0448C22.1253 21.0181 22.3776 21.1407 22.6239 21.2949C22.8393 21.4296 23.0618 21.5535 23.2808 21.6809C23.4438 21.7756 23.6152 21.8581 23.7675 21.9698C23.9591 22.1094 24.1103 22.022 24.2757 21.9237C24.6184 21.721 24.9528 21.5049 25.3015 21.3119C25.4169 21.2488 25.5252 21.1759 25.649 21.1274C26.0001 20.989 26.3511 21.0011 26.6867 21.1565C26.9057 21.2585 27.064 21.4381 26.9676 21.6955C26.9224 21.8157 26.8212 21.8958 26.7141 21.9589C26.3916 22.1519 26.0667 22.34 25.743 22.5318C25.624 22.6022 25.5062 22.6751 25.3896 22.7503C25.2813 22.8207 25.2837 22.862 25.3943 22.9288C25.7049 23.1157 26.0155 23.299 26.3285 23.4811C26.5249 23.5964 26.7355 23.6984 26.8986 23.8695C27.0164 23.9933 27.0366 24.1985 26.9271 24.3272C26.7653 24.5177 26.5499 24.6161 26.3083 24.6318C26.0953 24.6452 25.8799 24.6573 25.6716 24.5639C25.5324 24.5007 25.4027 24.4231 25.2718 24.349C24.9873 24.1876 24.7101 24.0152 24.4304 23.8465C24.3388 23.7918 24.2436 23.7421 24.1567 23.6789C24.0436 23.5952 23.933 23.6013 23.8199 23.6692C23.5081 23.8562 23.1975 24.0468 22.8845 24.2325C22.6406 24.3781 22.4037 24.5372 22.1253 24.6124C21.9408 24.6622 21.7492 24.6573 21.5695 24.6246C21.397 24.593 21.2232 24.5274 21.0875 24.3903C20.9043 24.2033 20.8924 24.0103 21.0911 23.844C21.3946 23.5903 21.7528 23.4252 22.0836 23.2165C22.2419 23.1169 22.4061 23.0259 22.5656 22.9288C22.6572 22.8729 22.6548 22.8086 22.5632 22.7503C22.224 22.5282 21.8694 22.3352 21.5231 22.1252C21.3862 22.0426 21.2387 21.9759 21.1197 21.8642C20.8472 21.6081 20.9174 21.392 21.1697 21.2281C21.4148 21.0679 21.5064 21.0278 21.8325 21.0473V21.0448Z" fill="white"/></g><g clip-path="url(#clip1_19303_81281)"><path d="M15.052 16.6579C15.1281 16.6652 15.1043 16.6021 15.1031 16.5693C15.0889 16.1117 15.2483 15.705 15.4375 15.3032C15.7601 14.6174 16.2432 14.0687 16.8049 13.5807C17.1655 13.2676 17.5546 12.9957 17.9581 12.7456C18.2425 12.5696 18.5329 12.4009 18.8399 12.271C19.1684 12.1326 19.498 11.9942 19.8348 11.8765C20.0645 11.7963 20.2941 11.715 20.5262 11.6446C20.8082 11.5596 21.0939 11.4795 21.383 11.414C21.7781 11.3242 22.1756 11.2392 22.5755 11.1846C23.0384 11.1202 23.5037 11.0644 23.9726 11.045C24.401 11.0268 24.8282 10.9879 25.2567 11.0037C25.8862 11.0268 26.5157 11.0571 27.1417 11.1457C27.4154 11.1846 27.6903 11.227 27.9652 11.261C28.1473 11.2841 28.327 11.3375 28.5079 11.3776C28.9339 11.4722 29.3552 11.5888 29.7717 11.7187C30.074 11.8133 30.3691 11.9287 30.6642 12.0428C30.9701 12.1617 31.27 12.2952 31.5639 12.4421C31.7841 12.5526 31.9983 12.6776 32.2089 12.8063C32.5433 13.0102 32.8623 13.2396 33.1622 13.4946C33.4799 13.7652 33.7691 14.0639 34.0368 14.388C34.3189 14.7315 34.564 15.1005 34.7235 15.5096C34.8818 15.9126 34.9948 16.335 35.0008 16.7842C35.0067 17.2309 34.9448 17.6606 34.808 18.0794C34.6771 18.4799 34.4712 18.8405 34.2272 19.1828C33.9869 19.5214 33.7203 19.831 33.4192 20.1126C33.2181 20.3007 32.9991 20.467 32.779 20.6321C32.4612 20.8713 32.122 21.074 31.7769 21.2646C31.4866 21.4248 31.1748 21.4818 30.8427 21.4139C30.6035 21.3653 30.3941 21.2828 30.2608 21.0558C30.2025 20.9562 30.2025 20.87 30.2608 20.7742C30.3465 20.6321 30.4714 20.5374 30.6131 20.4634C30.9808 20.2728 31.3247 20.0458 31.6496 19.7885C31.7912 19.6768 31.9221 19.5506 32.0506 19.4243C32.1066 19.3697 32.1185 19.3066 32.0376 19.2435C31.8638 19.1099 31.6663 19.0177 31.4818 18.9036C31.1486 18.6972 30.8082 18.5006 30.4691 18.3027C30.1894 18.14 29.9074 17.9822 29.6277 17.8196C29.5706 17.7868 29.5063 17.7552 29.4623 17.7152C29.2909 17.5659 29.185 17.6958 29.0589 17.7844C28.828 17.9483 28.5924 18.1036 28.3555 18.2602C27.9795 18.5079 27.5903 18.7324 27.1929 18.94C26.9227 19.0808 26.655 19.224 26.3765 19.3503C26.1385 19.4583 25.9112 19.5809 25.7029 19.7569C25.4959 19.9317 25.221 19.9876 24.9437 19.9621C24.7866 19.9475 24.6331 19.9111 24.476 19.8965C24.2546 19.8759 24.0868 19.7581 23.9476 19.5991C23.8512 19.4899 23.7381 19.4073 23.618 19.3345C23.2931 19.1366 22.9634 18.9461 22.6362 18.7531C22.2042 18.4981 21.771 18.2457 21.339 17.9907C21.2783 17.9543 21.2152 17.9215 21.1593 17.8803C21.0463 17.7965 20.9725 17.8463 20.8892 17.9264C20.6214 18.1874 20.3858 18.4763 20.1501 18.7664C19.8479 19.1378 19.5944 19.5409 19.3707 19.9657C19.3326 20.0385 19.2945 20.1138 19.2612 20.1891C19.2136 20.2947 19.2612 20.3748 19.36 20.4282C19.4849 20.4974 19.6206 20.5508 19.717 20.6673C19.88 20.8652 19.9145 21.0291 19.6634 21.233C19.3695 21.4697 19.0279 21.4794 18.6733 21.4175C18.4353 21.3762 18.2377 21.2427 18.0354 21.1274C17.7189 20.9465 17.4154 20.7414 17.1262 20.5156C16.7418 20.2146 16.386 19.8844 16.073 19.5057C15.8422 19.2265 15.6363 18.9303 15.4768 18.6062C15.2698 18.185 15.0877 17.7504 15.102 17.2612C15.102 17.2224 15.1162 17.1702 15.0508 17.1677V16.6579H15.052ZM25.0067 18.622C25.0805 18.6462 25.1388 18.577 25.2102 18.5491C25.4959 18.4387 25.7696 18.3003 26.0349 18.1522C26.4324 17.9325 26.8275 17.7043 27.2071 17.4494C27.4237 17.3037 27.6415 17.158 27.851 17.0014C27.9747 16.9092 27.9664 16.8072 27.8284 16.7405C27.6903 16.6749 27.5653 16.5887 27.4344 16.5135C27.1643 16.3569 26.8989 16.1894 26.6288 16.0303C26.1754 15.7633 25.722 15.4962 25.2662 15.234C25.1662 15.177 25.0651 15.1102 24.9341 15.194C24.814 15.2717 24.6771 15.3214 24.545 15.3797C24.2177 15.5266 23.9083 15.705 23.5977 15.8822C23.3692 16.0121 23.1443 16.1481 22.9242 16.2962C22.6683 16.4685 22.4041 16.6263 22.1685 16.8278C22.0709 16.9116 22.0756 16.9456 22.1935 17.0148C22.5076 17.1993 22.823 17.3826 23.136 17.5671C23.3883 17.7164 23.6394 17.8681 23.8905 18.0199C24.163 18.1837 24.4331 18.35 24.7092 18.5066C24.7973 18.5564 24.8782 18.6341 25.0056 18.622H25.0067ZM20.7606 16.1335C20.7999 16.1226 20.8428 16.1274 20.8796 16.1007C21.1093 15.9405 21.3366 15.7779 21.5687 15.6225C21.7805 15.4805 21.9947 15.3421 22.2125 15.211C22.4077 15.0944 22.6064 14.9852 22.8075 14.8784C23.0562 14.7473 23.305 14.6162 23.5585 14.496C23.6168 14.4681 23.6822 14.4572 23.6917 14.3843C23.7013 14.3091 23.6382 14.2726 23.5858 14.2411C23.2514 14.0408 22.9146 13.8442 22.579 13.6451C22.1078 13.3647 21.6377 13.0843 21.1676 12.8026C21.0308 12.7213 20.9058 12.68 20.7392 12.7602C20.5893 12.8318 20.4298 12.8961 20.2715 12.952C19.8681 13.0964 19.4956 13.3064 19.1291 13.5249C18.8316 13.7033 18.5471 13.9048 18.2853 14.1355C18.2044 14.2071 18.1223 14.2787 18.0485 14.3576C17.9831 14.4292 17.9747 14.513 18.0676 14.5688C18.2794 14.6987 18.4936 14.8225 18.7078 14.9476C18.9708 15.1005 19.2374 15.2486 19.498 15.404C19.88 15.6322 20.2608 15.8665 20.6404 16.0995C20.6785 16.1226 20.7214 16.1165 20.7606 16.1311V16.1335ZM16.7966 16.9322C16.8097 17.2454 16.8597 17.5683 16.9668 17.8718C17.0739 18.174 17.2179 18.4642 17.4047 18.7276C17.5249 18.8975 17.6522 19.0626 17.8022 19.207C17.8319 19.2362 17.8772 19.2944 17.914 19.2398C17.945 19.1949 17.9878 19.1621 18.0152 19.1148C18.2246 18.7421 18.4841 18.4071 18.7578 18.0818C19.0136 17.7771 19.2862 17.487 19.5682 17.2078C19.661 17.1155 19.6563 16.9954 19.5516 16.9286C19.3528 16.8011 19.1493 16.681 18.9458 16.5608C18.6769 16.403 18.4032 16.2525 18.1354 16.0935C17.851 15.9247 17.5713 15.7475 17.2869 15.5788C17.2274 15.5436 17.1643 15.5521 17.1119 15.62C17.062 15.6832 17.0536 15.7584 17.0251 15.8276C16.8775 16.176 16.8156 16.5426 16.7978 16.9335L16.7966 16.9322ZM33.2538 16.8388C33.2669 16.7781 33.2181 16.6725 33.2205 16.562C33.2252 16.369 33.1622 16.1869 33.1062 16.0085C33.0312 15.7657 32.9253 15.5314 32.7956 15.3117C32.6421 15.0483 32.4588 14.808 32.2387 14.598C32.1732 14.5361 32.1232 14.5494 32.0744 14.615C32.0518 14.6453 32.0245 14.672 32.0066 14.7048C31.8114 15.0532 31.5651 15.3651 31.3188 15.6759C31.0474 16.017 30.7428 16.3265 30.4417 16.6397C30.3643 16.7198 30.3762 16.7781 30.4738 16.8363C30.6928 16.9662 30.9118 17.0998 31.1319 17.2296C31.4271 17.4044 31.7234 17.5756 32.0173 17.7504C32.2506 17.8888 32.4838 18.0284 32.7147 18.1692C32.8801 18.2699 32.9122 18.2602 33.0039 18.0794C33.0312 18.0259 33.0336 17.964 33.0574 17.9131C33.2086 17.5889 33.2228 17.2394 33.2526 16.8388H33.2538ZM25.0472 12.0683C24.5819 12.0755 24.1154 12.0415 23.6537 12.1217C23.4121 12.1629 23.1657 12.1557 22.9277 12.22C22.8885 12.2309 22.8551 12.2443 22.8456 12.2868C22.8349 12.3365 22.8766 12.3511 22.9087 12.3705C23.0646 12.464 23.2205 12.5562 23.3764 12.6497C23.7001 12.8451 24.0273 13.0357 24.351 13.2299C24.6295 13.3962 24.9092 13.565 25.1971 13.7155C25.2543 13.7458 25.3054 13.758 25.3733 13.7325C25.6125 13.6439 25.8541 13.5589 26.0968 13.4824C26.5788 13.3295 27.0608 13.1777 27.5523 13.0515C27.9474 12.9495 28.3436 12.85 28.7411 12.7577C28.7935 12.7456 28.8589 12.7407 28.8673 12.674C28.8768 12.5963 28.8006 12.5987 28.7542 12.5817C28.3544 12.43 27.9307 12.3778 27.5189 12.2746C27.4713 12.2625 27.4225 12.2515 27.3738 12.2479C27.1393 12.2297 26.9096 12.1714 26.674 12.1544C26.4396 12.1374 26.2063 12.084 25.9719 12.0731C25.6648 12.0585 25.3554 12.0695 25.0472 12.0695V12.0683ZM29.0232 15.9466C29.0612 15.9514 29.1005 15.9259 29.1326 15.892C29.1791 15.8446 29.2183 15.79 29.2671 15.7451C29.4932 15.5351 29.6836 15.2923 29.8729 15.0495C30.0133 14.8687 30.1454 14.6805 30.2727 14.4887C30.4465 14.2277 30.6059 13.9583 30.738 13.6718C30.7999 13.5383 30.7678 13.497 30.619 13.497C30.3989 13.497 30.1894 13.5735 29.9728 13.6062C29.5623 13.6694 29.1529 13.7531 28.753 13.8648C28.3436 13.9789 27.9295 14.0724 27.5273 14.2132C27.4071 14.2544 27.2809 14.2775 27.1595 14.3163C27.0227 14.36 26.8846 14.405 26.7525 14.4632C26.6335 14.5154 26.6359 14.564 26.7454 14.6368C26.8144 14.6817 26.8834 14.7266 26.9549 14.7679C27.2214 14.9221 27.4916 15.0714 27.7569 15.2292C28.0937 15.4283 28.4258 15.637 28.7649 15.8313C28.8423 15.8762 28.9137 15.9442 29.0232 15.9466Z" fill="#1B1F79"/><path d="M22.8833 21.0448C23.1761 21.0181 23.4283 21.1407 23.6747 21.2949C23.8901 21.4296 24.1126 21.5535 24.3316 21.6809C24.4946 21.7756 24.666 21.8581 24.8183 21.9698C25.0099 22.1094 25.1611 22.022 25.3265 21.9237C25.6692 21.721 26.0036 21.5049 26.3523 21.3119C26.4677 21.2488 26.576 21.1759 26.6998 21.1274C27.0509 20.989 27.4019 21.0011 27.7375 21.1565C27.9565 21.2585 28.1148 21.4381 28.0184 21.6955C27.9731 21.8157 27.872 21.8958 27.7649 21.9589C27.4424 22.1519 27.1175 22.34 26.7938 22.5318C26.6748 22.6022 26.557 22.6751 26.4404 22.7503C26.3321 22.8207 26.3344 22.862 26.4451 22.9288C26.7557 23.1157 27.0663 23.299 27.3793 23.4811C27.5757 23.5964 27.7863 23.6984 27.9493 23.8695C28.0672 23.9933 28.0874 24.1985 27.9779 24.3272C27.8161 24.5177 27.6007 24.6161 27.3591 24.6318C27.1461 24.6452 26.9307 24.6573 26.7224 24.5639C26.5832 24.5007 26.4534 24.4231 26.3225 24.349C26.0381 24.1876 25.7608 24.0152 25.4812 23.8465C25.3895 23.7918 25.2943 23.7421 25.2075 23.6789C25.0944 23.5952 24.9837 23.6013 24.8707 23.6692C24.5589 23.8562 24.2483 24.0468 23.9353 24.2325C23.6913 24.3781 23.4545 24.5372 23.1761 24.6124C22.9916 24.6622 22.8 24.6573 22.6203 24.6246C22.4477 24.593 22.274 24.5274 22.1383 24.3903C21.9551 24.2033 21.9432 24.0103 22.1419 23.844C22.4454 23.5903 22.8036 23.4252 23.1344 23.2165C23.2927 23.1169 23.4569 23.0259 23.6164 22.9288C23.708 22.8729 23.7056 22.8086 23.614 22.7503C23.2748 22.5282 22.9202 22.3352 22.5739 22.1252C22.437 22.0426 22.2895 21.9759 22.1705 21.8642C21.8979 21.6081 21.9681 21.392 22.2204 21.2281C22.4656 21.0679 22.5572 21.0278 22.8833 21.0473V21.0448Z" fill="#1B1F79"/></g><defs><radialGradient id="paint0_radial_19303_81281" cx="0" cy="0" r="1" gradientUnits="userSpaceOnUse" gradientTransform="translate(7.12452 16.4816) scale(19.8604 19.8604)"><stop stop-color="#D4D8FF"/><stop offset="1" stop-color="#373B9C"/></radialGradient><linearGradient id="paint1_linear_19303_81281" x1="10.8743" y1="10.1147" x2="41.9836" y2="28.6616" gradientUnits="userSpaceOnUse"><stop stop-color="#D4E0FF"/><stop offset="0.796875" stop-color="#6361BB"/></linearGradient><clipPath id="clip0_19303_81281"><rect width="19.95" height="13.65" fill="white" transform="translate(14 11)"/></clipPath><clipPath id="clip1_19303_81281"><rect width="19.95" height="13.65" fill="white" transform="translate(15.0508 11)"/></clipPath></defs></svg>