<svg width="48" height="48" viewBox="0 0 48 48" fill="none" xmlns="http://www.w3.org/2000/svg"><circle cx="24" cy="24" r="24" fill="#1B1F79"/><path d="M24.131 40.4742C23.3647 40.4742 22.6235 40.3079 22.0437 39.9751L6.33348 30.9049C5.63771 30.5016 5.23438 29.8764 5.23438 29.1907C5.23438 28.4193 5.73351 27.6883 6.6007 27.1891L21.7715 18.4315C23.1731 17.6248 25.1747 17.5542 26.425 18.2752L42.1353 27.3454C42.831 27.7488 43.2344 28.3739 43.2344 29.0596C43.2344 29.831 42.7352 30.557 41.868 31.0612L26.6973 39.8188C25.941 40.2574 25.0184 40.4742 24.131 40.4742ZM22.9311 38.4323C23.6268 38.8306 24.9629 38.76 25.7998 38.276L40.9706 29.5184C41.3538 29.2966 41.4445 29.1 41.4445 29.0596C41.4395 29.0495 41.3891 28.9739 41.2378 28.8882L25.5276 19.818C24.8369 19.4197 23.4958 19.4903 22.6588 19.9743L7.48804 28.7319C7.10487 28.9537 7.01413 29.1504 7.01413 29.1857C7.01917 29.1958 7.06957 29.2714 7.22083 29.3571L22.9311 38.4323Z" fill="white"/><path d="M42.3361 23.4992V18.0793L30.1803 18.0742L25.9805 15.6491C25.0175 15.0945 23.3336 15.1601 22.2193 15.8054L18.2968 18.0692L6.13096 18.0641V23.6404C6.10575 24.0185 6.31246 24.3815 6.77631 24.6487L22.4865 33.7189C23.4495 34.2735 25.1335 34.208 26.2477 33.5626L41.4185 24.805C42.0638 24.4269 42.3714 23.9479 42.3361 23.4992Z" fill="#5559A4"/><path d="M24.2321 15.2773C23.5263 15.2925 22.7952 15.474 22.2154 15.8067L18.2929 18.0705L6.12705 18.0655V23.6417C6.10184 24.0198 6.30856 24.3828 6.7724 24.65L22.4826 33.7202C22.9465 33.9874 23.5767 34.1084 24.2271 34.0933V15.2773H24.2321Z" fill="url(#paint0_radial_19303_81160)"/><path d="M7.50736 18.0586H6.13096V23.6348C6.10575 24.013 6.31246 24.376 6.77631 24.6432L7.50736 25.0667V18.0586Z" fill="#D4D8FF"/><path d="M22.7305 33.8346C23.5624 34.1926 24.7673 34.1724 25.7404 33.7993V27.4668H22.7305V33.8346Z" fill="#373B9C"/><path d="M22.4889 28.1578L6.77871 19.0876C5.81573 18.533 5.93672 17.5599 7.05096 16.9146L22.2217 8.15697C23.336 7.51162 25.0199 7.44607 25.9829 8.00067L41.6931 17.0709C42.6561 17.6255 42.5351 18.5985 41.4209 19.2439L26.2501 28.0015C25.1359 28.6468 23.4519 28.7174 22.4889 28.1578Z" fill="url(#paint1_linear_19303_81160)"/><path d="M41.4206 18.1748L26.2499 26.9324C25.1356 27.5777 23.4517 27.6433 22.4887 27.0887L6.77845 18.0185C6.56165 17.8924 6.40535 17.7513 6.29947 17.5899C5.96671 18.1244 6.11797 18.6991 6.77845 19.0823L22.4887 28.1525C23.4517 28.7071 25.1356 28.6415 26.2499 27.9962L41.4206 19.2386C42.2878 18.7395 42.55 18.0437 42.1718 17.4941C42.0206 17.7412 41.7735 17.9782 41.4206 18.1748Z" fill="white"/><path d="M36.5596 24.9304C36.5596 25.3337 36.2773 25.8278 35.9243 26.0295C35.5714 26.2312 35.2891 26.0699 35.2891 25.6615C35.2891 25.2581 35.5714 24.764 35.9243 24.5624C36.2773 24.3607 36.5596 24.5271 36.5596 24.9304Z" fill="#FF7F5C"/><path d="M38.5987 23.7507C38.5987 24.1541 38.3163 24.6482 37.9634 24.8498C37.6105 25.0515 37.3281 24.8902 37.3281 24.4818C37.3281 24.0784 37.6105 23.5843 37.9634 23.3827C38.3163 23.181 38.5987 23.3474 38.5987 23.7507Z" fill="#FF7F5C"/><path d="M40.6455 22.5758C40.6455 22.9792 40.3632 23.4733 40.0103 23.675C39.6573 23.8766 39.375 23.7153 39.375 23.3069C39.375 22.9036 39.6573 22.4095 40.0103 22.2078C40.3582 22.0061 40.6455 22.1675 40.6455 22.5758Z" fill="#FF7F5C"/><path d="M28.8572 11.3351C28.6669 11.4445 28.4828 11.582 28.3081 11.7382C28.2319 9.26828 26.4492 8.28878 24.2557 9.55775C22.471 10.5892 20.9585 12.8008 20.4166 14.965C19.9765 14.9059 19.4584 15.0218 18.8999 15.3437C17.3024 16.2688 16.0053 18.5147 16.0063 20.3632C16.0073 22.2118 17.303 22.9574 18.9036 22.0353L28.86 16.2781C30.0394 15.5967 30.9966 13.935 30.9959 12.5735C30.9951 11.2121 30.0367 10.6537 28.8572 11.3351Z" fill="white"/><path d="M29.8572 12.3351C29.6669 12.4445 29.4828 12.582 29.3081 12.7382C29.2319 10.2683 27.4492 9.28878 25.2557 10.5578C23.471 11.5892 21.9585 13.8008 21.4166 15.965C20.9765 15.9059 20.4584 16.0218 19.8999 16.3437C18.3024 17.2688 17.0053 19.5147 17.0063 21.3632C17.0073 23.2118 18.303 23.9574 19.9036 23.0353L29.86 17.2781C31.0394 16.5967 31.9966 14.935 31.9959 13.5735C31.9951 12.2121 31.0367 11.6537 29.8572 12.3351Z" fill="#1B1F79"/><defs><radialGradient id="paint0_radial_19303_81160" cx="0" cy="0" r="1" gradientUnits="userSpaceOnUse" gradientTransform="translate(7.12452 16.4836) scale(19.8604 19.8604)"><stop stop-color="#D4D8FF"/><stop offset="1" stop-color="#373B9C"/></radialGradient><linearGradient id="paint1_linear_19303_81160" x1="10.8743" y1="10.1147" x2="41.9836" y2="28.6616" gradientUnits="userSpaceOnUse"><stop stop-color="#D4E0FF"/><stop offset="0.796875" stop-color="#6361BB"/></linearGradient></defs></svg>