<svg width="48" height="48" viewBox="0 0 48 48" fill="none" xmlns="http://www.w3.org/2000/svg"><circle cx="24" cy="24" r="24" fill="#1B1F79"/><path d="M24.131 40.4742C23.3647 40.4742 22.6235 40.3079 22.0437 39.9751L6.33348 30.9049C5.63771 30.5016 5.23438 29.8764 5.23438 29.1907C5.23438 28.4193 5.73351 27.6883 6.6007 27.1891L21.7715 18.4315C23.1731 17.6248 25.1747 17.5542 26.425 18.2752L42.1353 27.3454C42.831 27.7488 43.2344 28.3739 43.2344 29.0596C43.2344 29.831 42.7352 30.557 41.868 31.0612L26.6973 39.8188C25.941 40.2574 25.0184 40.4742 24.131 40.4742ZM22.9311 38.4323C23.6268 38.8306 24.9629 38.76 25.7998 38.276L40.9706 29.5184C41.3538 29.2966 41.4445 29.1 41.4445 29.0596C41.4395 29.0495 41.3891 28.9739 41.2378 28.8882L25.5276 19.818C24.8369 19.4197 23.4958 19.4903 22.6588 19.9743L7.48804 28.7319C7.10487 28.9537 7.01413 29.1504 7.01413 29.1857C7.01917 29.1958 7.06957 29.2714 7.22083 29.3571L22.9311 38.4323Z" fill="white"/><path d="M42.3361 23.4992V18.0793L30.1803 18.0742L25.9805 15.6491C25.0175 15.0945 23.3336 15.1601 22.2193 15.8054L18.2968 18.0692L6.13096 18.0641V23.6404C6.10575 24.0185 6.31246 24.3815 6.77631 24.6487L22.4865 33.7189C23.4495 34.2735 25.1335 34.208 26.2477 33.5626L41.4185 24.805C42.0638 24.4269 42.3714 23.9479 42.3361 23.4992Z" fill="#5559A4"/><path d="M24.2321 15.2773C23.5263 15.2925 22.7952 15.474 22.2154 15.8067L18.2929 18.0705L6.12705 18.0655V23.6417C6.10184 24.0198 6.30856 24.3828 6.7724 24.65L22.4826 33.7202C22.9465 33.9874 23.5767 34.1084 24.2271 34.0933V15.2773H24.2321Z" fill="url(#paint0_radial_19303_81250)"/><path d="M7.50736 18.0586H6.13096V23.6348C6.10575 24.013 6.31246 24.376 6.77631 24.6432L7.50736 25.0667V18.0586Z" fill="#D4D8FF"/><path d="M22.7305 33.8346C23.5624 34.1926 24.7673 34.1724 25.7404 33.7993V27.4668H22.7305V33.8346Z" fill="#373B9C"/><path d="M22.4889 28.1578L6.77871 19.0876C5.81573 18.533 5.93672 17.5599 7.05096 16.9146L22.2217 8.15697C23.336 7.51162 25.0199 7.44607 25.9829 8.00067L41.6931 17.0709C42.6561 17.6255 42.5351 18.5985 41.4209 19.2439L26.2501 28.0015C25.1359 28.6468 23.4519 28.7174 22.4889 28.1578Z" fill="url(#paint1_linear_19303_81250)"/><g clip-path="url(#clip0_19303_81250)"><path d="M26.8296 14.7357C26.8348 14.6789 26.8374 14.6221 26.8374 14.5653C26.8479 14.1471 26.7827 13.7934 26.6551 13.5069C26.5274 13.2229 26.3398 13.0087 26.1053 12.8719L24.4535 11.9219C24.9225 12.1929 25.2065 12.7789 25.1856 13.6127C25.183 13.6695 25.1804 13.7263 25.1778 13.7831C25.1778 13.8012 25.1752 13.8167 25.1726 13.8348C25.17 13.8761 25.1648 13.9199 25.1596 13.9612C25.157 13.9793 25.1544 13.9974 25.1518 14.018C25.1465 14.0542 25.1413 14.0929 25.1335 14.129C25.1309 14.1471 25.1283 14.1626 25.1257 14.1807C25.1153 14.2349 25.1049 14.2891 25.0944 14.3433C25.084 14.3923 25.0736 14.4388 25.0606 14.4879C25.058 14.5034 25.0527 14.5163 25.0501 14.5317C25.0423 14.5653 25.0319 14.5989 25.0241 14.635C25.0215 14.6479 25.0163 14.6608 25.0137 14.6711C25.0032 14.7047 24.9928 14.7383 24.9824 14.7744C24.9772 14.7925 24.972 14.808 24.9668 14.826C24.959 14.8519 24.9511 14.8777 24.9407 14.9035C24.9173 14.9732 24.8938 15.0403 24.8652 15.11C24.86 15.1229 24.8547 15.1332 24.8521 15.1461C24.8287 15.2029 24.8052 15.2597 24.7818 15.3165C24.7766 15.332 24.7688 15.3449 24.7636 15.3604C24.7349 15.4249 24.7062 15.4869 24.675 15.5514C24.6698 15.5643 24.6619 15.5772 24.6567 15.5876C24.6307 15.6418 24.602 15.6934 24.576 15.7476C24.5681 15.7631 24.5603 15.7786 24.5525 15.7915C24.5186 15.8535 24.4848 15.9154 24.4483 15.9774C24.4431 15.9877 24.4353 15.998 24.4301 16.0084C24.3962 16.0651 24.3623 16.1194 24.3284 16.1736C24.3206 16.1865 24.3128 16.1994 24.3024 16.2123C24.2607 16.2768 24.219 16.3388 24.1747 16.4007C24.1669 16.4136 24.1591 16.424 24.1487 16.4369C24.0992 16.5066 24.0497 16.5737 23.9976 16.6408C23.9819 16.6615 23.9663 16.6795 23.9507 16.7002C23.9324 16.7208 23.9168 16.7441 23.8986 16.7647C23.8829 16.7854 23.8647 16.8035 23.8491 16.8241C23.8308 16.8448 23.8152 16.8654 23.7969 16.8861C23.7891 16.8964 23.7813 16.9041 23.7709 16.9145C23.7396 16.9506 23.7058 16.9867 23.6745 17.0203C23.6615 17.0358 23.6458 17.0487 23.6328 17.0642C23.6041 17.0926 23.5755 17.1236 23.5468 17.1519C23.5286 17.17 23.513 17.1881 23.4947 17.2036C23.4817 17.2139 23.4713 17.2268 23.4582 17.2371C23.4348 17.2604 23.4087 17.281 23.3853 17.3043C23.3749 17.3146 23.3645 17.3249 23.354 17.3327C23.3202 17.3636 23.2837 17.3946 23.2498 17.423C23.2472 17.4256 23.2472 17.4256 23.2446 17.4282C23.2107 17.4566 23.1769 17.485 23.143 17.5108C23.1326 17.5185 23.1195 17.5288 23.1091 17.5366C23.0831 17.5547 23.0596 17.5753 23.0336 17.5934C23.0205 17.6037 23.0075 17.6115 22.9945 17.6218C22.9684 17.6398 22.9424 17.6579 22.9163 17.676C22.9059 17.6837 22.8929 17.6915 22.8825 17.6992C22.846 17.725 22.8069 17.7483 22.7704 17.7715C22.7418 17.787 22.7157 17.8051 22.687 17.8206C22.648 17.8438 22.6089 17.8644 22.5724 17.8825C22.562 17.8877 22.5516 17.8928 22.5411 17.898C22.5073 17.9161 22.4708 17.9316 22.4369 17.947C22.4317 17.9496 22.4291 17.9496 22.4239 17.9522C22.3874 17.9677 22.3536 17.9832 22.3197 17.9961C22.2832 18.0116 22.2441 18.0245 22.2077 18.0374C22.1998 18.04 22.1894 18.0451 22.1816 18.0477C22.1347 18.0632 22.0904 18.0761 22.0461 18.089C22.0201 18.0968 21.994 18.1019 21.968 18.1071C21.9549 18.1097 21.9419 18.1123 21.9315 18.1148C21.8924 18.1226 21.8559 18.1303 21.8168 18.1355H21.8142C21.7804 18.1407 21.7465 18.1458 21.7126 18.1484C21.7022 18.1484 21.6892 18.151 21.6788 18.151C21.6553 18.1536 21.6293 18.1536 21.6058 18.1561C21.5954 18.1561 21.585 18.1561 21.5745 18.1561C21.5485 18.1561 21.525 18.1561 21.5016 18.1561C21.4938 18.1561 21.4834 18.1561 21.4755 18.1561C21.4443 18.1536 21.413 18.151 21.3817 18.1484C21.3765 18.1484 21.3687 18.1458 21.3635 18.1458C21.3374 18.1432 21.314 18.1381 21.2879 18.1329C21.2801 18.1303 21.2723 18.1303 21.2619 18.1277C21.2332 18.1226 21.2072 18.1148 21.1785 18.1071C21.1759 18.1071 21.1759 18.1071 21.1733 18.1045C21.1446 18.0968 21.116 18.0864 21.0873 18.0761C21.0795 18.0735 21.0717 18.071 21.0639 18.0684C21.0404 18.0606 21.0196 18.0503 20.9961 18.04C20.9909 18.0374 20.9857 18.0348 20.9779 18.0322C20.9492 18.0193 20.9232 18.0038 20.8945 17.9883L22.5464 18.9383C22.5516 18.9409 22.5542 18.9435 22.5594 18.9461C22.5828 18.959 22.6063 18.9693 22.6297 18.9822C22.6349 18.9848 22.6401 18.9874 22.648 18.99C22.661 18.9951 22.674 19.0029 22.687 19.008C22.6949 19.0106 22.7053 19.0158 22.7131 19.0184C22.7209 19.0209 22.7287 19.0235 22.7365 19.0261C22.7652 19.0364 22.7913 19.0468 22.8199 19.0545C22.8199 19.0545 22.8199 19.0545 22.8225 19.0545C22.8251 19.0545 22.8251 19.0545 22.8277 19.0571C22.8538 19.0648 22.8825 19.0726 22.9111 19.0777C22.9189 19.0803 22.9267 19.0803 22.9372 19.0829C22.945 19.0855 22.9554 19.0855 22.9632 19.0881C22.9789 19.0906 22.9945 19.0932 23.0127 19.0958C23.0179 19.0958 23.0257 19.0984 23.031 19.0984C23.0596 19.101 23.0857 19.1035 23.1143 19.1061C23.1169 19.1061 23.1221 19.1061 23.1248 19.1061C23.1326 19.1061 23.143 19.1061 23.1508 19.1061C23.1743 19.1061 23.2003 19.1087 23.2238 19.1061C23.2342 19.1061 23.2446 19.1061 23.255 19.1061C23.2628 19.1061 23.2707 19.1061 23.2785 19.1061C23.2941 19.1061 23.3097 19.1035 23.3254 19.1035C23.3358 19.1035 23.3462 19.101 23.3592 19.101C23.3931 19.0984 23.427 19.0932 23.4609 19.0881H23.4635C23.4999 19.0829 23.539 19.0752 23.5755 19.0674C23.5885 19.0648 23.6015 19.0622 23.612 19.0597C23.6354 19.0545 23.6589 19.0493 23.6823 19.0416C23.6849 19.0416 23.6875 19.039 23.6901 19.039C23.7344 19.0261 23.7813 19.0132 23.8256 18.9977C23.8334 18.9951 23.8438 18.99 23.8517 18.9874C23.8881 18.9745 23.9272 18.9616 23.9637 18.9461C23.9689 18.9435 23.9741 18.9435 23.9793 18.9409C24.008 18.928 24.0392 18.9151 24.0705 18.9022C24.0757 18.8996 24.0783 18.8996 24.0835 18.897C24.1174 18.8815 24.1513 18.8635 24.1878 18.848C24.1982 18.8428 24.2086 18.8377 24.219 18.8325C24.2581 18.8118 24.2972 18.7912 24.3337 18.7705C24.3597 18.755 24.3884 18.7396 24.417 18.7215C24.4535 18.6983 24.4926 18.675 24.5291 18.6492C24.5395 18.6415 24.5525 18.6337 24.5629 18.626C24.589 18.6079 24.615 18.5898 24.6411 18.5718C24.6541 18.5614 24.6672 18.5537 24.6802 18.5434C24.7062 18.5253 24.7297 18.5046 24.7557 18.4866C24.7662 18.4788 24.7792 18.4685 24.7896 18.4608C24.8235 18.4349 24.8573 18.4065 24.8912 18.3782C24.8938 18.3756 24.8938 18.3756 24.8964 18.373C24.9329 18.3446 24.9668 18.3136 25.0006 18.2826C25.0111 18.2723 25.0215 18.262 25.0319 18.2542C25.0554 18.231 25.0814 18.2104 25.1049 18.1871C25.1179 18.1768 25.1283 18.1639 25.1413 18.1536C25.1518 18.1458 25.1596 18.1355 25.17 18.1277C25.1778 18.12 25.1856 18.1097 25.196 18.1019C25.2247 18.0735 25.2534 18.0451 25.282 18.0142C25.2951 17.9987 25.3107 17.9858 25.3237 17.9703C25.3576 17.9341 25.3888 17.9006 25.4201 17.8644C25.4279 17.8567 25.4331 17.8489 25.441 17.8412C25.4436 17.8386 25.4436 17.8386 25.4462 17.836C25.4644 17.8154 25.4826 17.7947 25.4983 17.7741C25.5139 17.7534 25.5321 17.7354 25.5478 17.7147C25.566 17.6941 25.5816 17.6734 25.5999 17.6502C25.6155 17.6321 25.6311 17.614 25.6442 17.5934C25.6442 17.5908 25.6468 17.5908 25.6468 17.5882C25.6989 17.5211 25.7484 17.454 25.7979 17.3843C25.8031 17.3765 25.8083 17.3714 25.8135 17.3636C25.8161 17.3585 25.8213 17.3533 25.8239 17.3481C25.8682 17.2862 25.9099 17.2242 25.9516 17.1597C25.9542 17.1545 25.9568 17.1519 25.9594 17.1468C25.9646 17.139 25.9699 17.1287 25.9751 17.121C26.0089 17.0668 26.0428 17.0125 26.0767 16.9558C26.0819 16.948 26.0871 16.9403 26.0897 16.9325C26.0923 16.9299 26.0923 16.9274 26.0949 16.9222C26.1314 16.8602 26.1653 16.7983 26.1991 16.7363C26.2017 16.7312 26.2043 16.726 26.2095 16.7208C26.2148 16.7105 26.22 16.7028 26.2226 16.6924C26.2512 16.6408 26.2773 16.5866 26.3033 16.5324C26.3086 16.5247 26.3112 16.5143 26.3164 16.5066C26.319 16.504 26.319 16.4988 26.3216 16.4963C26.3528 16.4317 26.3815 16.3698 26.4102 16.3052C26.4128 16.3001 26.4154 16.2949 26.418 16.2897C26.4232 16.2794 26.4258 16.2717 26.4284 16.2613C26.4518 16.2045 26.4779 16.1478 26.4987 16.091C26.5014 16.0832 26.5066 16.0729 26.5092 16.0651C26.5118 16.0626 26.5118 16.0574 26.5118 16.0548C26.5378 15.9877 26.5639 15.918 26.5873 15.8483C26.5899 15.8406 26.5925 15.8354 26.5951 15.8277C26.6004 15.8096 26.6082 15.7915 26.6134 15.7709C26.6186 15.7528 26.6238 15.7373 26.629 15.7192C26.6394 15.6857 26.6499 15.6521 26.6603 15.616C26.6629 15.6031 26.6681 15.5902 26.6707 15.5798C26.6707 15.5772 26.6733 15.5747 26.6733 15.5721C26.6811 15.5411 26.6889 15.5075 26.6994 15.4766C26.702 15.4611 26.7072 15.4482 26.7098 15.4327C26.7228 15.3836 26.7332 15.3372 26.7437 15.2881C26.7567 15.2339 26.7671 15.1797 26.7749 15.1229C26.7775 15.1048 26.7801 15.0893 26.7827 15.0713C26.7879 15.0326 26.7958 14.9964 26.801 14.9603C26.801 14.9525 26.8036 14.9448 26.8036 14.937C26.8062 14.9267 26.8062 14.9164 26.8062 14.9061C26.8114 14.8648 26.8166 14.8209 26.8192 14.7796C26.827 14.7692 26.827 14.7538 26.8296 14.7357Z" fill="white"/><path d="M25.9856 9.31236C25.9777 9.3072 25.9673 9.30203 25.9595 9.29687C25.9543 9.29429 25.9491 9.29171 25.9439 9.28913C25.9178 9.27364 25.8892 9.26073 25.8631 9.24524C25.8553 9.24008 25.8449 9.2375 25.837 9.23233C25.8032 9.21684 25.7667 9.19877 25.7302 9.18587C25.7276 9.18587 25.7276 9.18328 25.725 9.18328C25.7198 9.1807 25.7146 9.1807 25.7094 9.17812C25.6807 9.16521 25.6495 9.15489 25.6208 9.14456C25.6104 9.14198 25.6 9.13682 25.5895 9.13424C25.5557 9.12133 25.5218 9.111 25.4853 9.10068C25.4827 9.10068 25.4801 9.0981 25.4775 9.0981C25.4775 9.0981 25.4775 9.0981 25.4749 9.0981C25.4358 9.08777 25.3993 9.07744 25.3603 9.06712C25.3498 9.06454 25.3394 9.06196 25.329 9.05937C25.2977 9.05163 25.2665 9.04647 25.2326 9.0413C25.2274 9.0413 25.2196 9.03872 25.2144 9.03872C25.2117 9.03872 25.2091 9.03872 25.2065 9.03872C25.1649 9.03098 25.1258 9.02581 25.0841 9.02065C25.0737 9.02065 25.0658 9.01807 25.0554 9.01807C25.0216 9.01549 24.9851 9.01033 24.9512 9.00774C24.9434 9.00774 24.9382 9.00516 24.9304 9.00516C24.9278 9.00516 24.9225 9.00516 24.9199 9.00516C24.8783 9.00258 24.834 9 24.7897 9C24.7819 9 24.7714 9 24.7636 9C24.7245 9 24.6855 9 24.6438 9.00258C24.6386 9.00258 24.6307 9.00258 24.6255 9.00258C24.6229 9.00258 24.6177 9.00258 24.6151 9.00258C24.5656 9.00516 24.5161 9.00774 24.464 9.01291C24.4536 9.01291 24.4432 9.01549 24.4327 9.01549C24.3806 9.02065 24.3285 9.0284 24.2738 9.03614C24.2738 9.03614 24.2738 9.03614 24.2712 9.03614C24.2087 9.04647 24.1435 9.05679 24.0784 9.07228C24.0732 9.07228 24.068 9.07486 24.0628 9.07486C24.0002 9.08777 23.9377 9.10326 23.8752 9.11875C23.87 9.12133 23.8648 9.12133 23.8595 9.12133C23.8543 9.12133 23.8517 9.12391 23.8465 9.12391C23.8126 9.13424 23.7788 9.14198 23.7449 9.15231C23.7371 9.15489 23.7293 9.15747 23.7215 9.16005C23.6798 9.17296 23.6381 9.18587 23.5938 9.20136C23.5808 9.20652 23.5703 9.2091 23.5573 9.21426C23.5339 9.22975 23.5026 9.24008 23.4713 9.2504C23.4557 9.25815 23.4401 9.26331 23.4244 9.26847C23.3958 9.2788 23.3671 9.28913 23.3411 9.30203C23.3333 9.30461 23.3228 9.30978 23.315 9.31236C23.3072 9.31494 23.302 9.31752 23.2942 9.3201C23.2525 9.33817 23.2134 9.35366 23.1717 9.37173C23.1639 9.37431 23.1561 9.37948 23.1483 9.38206C23.1014 9.40271 23.0519 9.42594 23.0024 9.45176C22.9893 9.45692 22.9763 9.46467 22.9633 9.46983C22.9268 9.4879 22.8877 9.50855 22.8513 9.52662C22.8382 9.53437 22.8226 9.54211 22.8096 9.54985C22.7601 9.57567 22.7106 9.60407 22.6611 9.63246C22.5855 9.67635 22.5099 9.72023 22.437 9.7667C22.4135 9.78219 22.3901 9.79768 22.364 9.81317C22.3145 9.84672 22.2624 9.8777 22.2129 9.91126C22.1843 9.92933 22.1582 9.94998 22.1296 9.96805C22.0827 10.0016 22.0384 10.0326 21.9915 10.0662C21.9654 10.092 21.9368 10.1126 21.9081 10.1333C21.8612 10.1694 21.8169 10.203 21.77 10.2391C21.744 10.2598 21.7179 10.2804 21.6919 10.3011C21.6397 10.3424 21.5876 10.3863 21.5381 10.4301C21.5199 10.4456 21.4991 10.4611 21.4808 10.4792C21.4105 10.5386 21.3427 10.6005 21.275 10.6651C21.2594 10.678 21.2463 10.6934 21.2333 10.7064C21.189 10.7477 21.1421 10.7915 21.0978 10.8354C21.0874 10.8458 21.077 10.8561 21.0692 10.8638C21.0561 10.8767 21.0431 10.8896 21.0327 10.9C20.9702 10.9619 20.9076 11.0265 20.8477 11.091C20.8451 11.0936 20.8451 11.0936 20.8425 11.0962C20.78 11.1607 20.72 11.2304 20.6575 11.2975C20.6445 11.3104 20.6315 11.3233 20.6184 11.3362C20.608 11.3491 20.5976 11.3621 20.5872 11.3724C20.5585 11.4059 20.5324 11.4395 20.5038 11.4705C20.4751 11.504 20.4439 11.5402 20.4152 11.5737C20.3787 11.6176 20.3449 11.6615 20.3084 11.7054C20.2797 11.7415 20.2511 11.7751 20.225 11.8112C20.2198 11.819 20.2146 11.8241 20.2094 11.8293C20.1547 11.899 20.1026 11.9661 20.0504 12.0384C20.0478 12.041 20.0452 12.0461 20.0426 12.0487C19.9931 12.1158 19.9462 12.1804 19.8967 12.2475C19.8915 12.2552 19.8837 12.2656 19.8785 12.2733C19.8629 12.294 19.8498 12.3172 19.8342 12.3379C19.7951 12.3946 19.756 12.4514 19.717 12.5108C19.6987 12.5366 19.6831 12.5624 19.6649 12.5883C19.6518 12.6089 19.6388 12.627 19.6258 12.6476C19.5971 12.6915 19.5711 12.7354 19.5424 12.7793C19.532 12.7948 19.5216 12.8103 19.5111 12.8257C19.4668 12.8954 19.4252 12.9677 19.3835 13.04C19.3783 13.0478 19.373 13.0581 19.3678 13.0658C19.3574 13.0839 19.3444 13.1045 19.334 13.1226C19.2975 13.1872 19.261 13.2517 19.2245 13.3162C19.2115 13.3395 19.1985 13.3601 19.1881 13.3833C19.1802 13.3988 19.1724 13.4143 19.1646 13.4272C19.1281 13.4944 19.0943 13.5615 19.0604 13.6286C19.0552 13.6389 19.0526 13.6467 19.05 13.6518C19.0213 13.7086 18.9927 13.7654 18.964 13.8248C18.9536 13.8429 18.9458 13.8635 18.9353 13.8842C18.9249 13.9074 18.9119 13.9306 18.9015 13.9564C18.8676 14.0261 18.8363 14.0958 18.8051 14.1681C18.7973 14.1836 18.792 14.1991 18.7842 14.2146C18.7816 14.2172 18.779 14.2223 18.779 14.2275C18.7451 14.3075 18.7113 14.385 18.6774 14.465C18.6696 14.4856 18.6592 14.5089 18.6514 14.5295C18.6357 14.5682 18.6201 14.6044 18.6071 14.6431C18.5966 14.6715 18.5862 14.6973 18.5758 14.7257C18.5654 14.7541 18.555 14.7799 18.5445 14.8083C18.5185 14.8806 18.4924 14.9529 18.4664 15.0278C18.4612 15.0432 18.4559 15.0561 18.4507 15.0716C18.4507 15.0742 18.4481 15.0794 18.4481 15.082C18.4195 15.1672 18.3934 15.2523 18.3674 15.3375C18.3595 15.3608 18.3543 15.3866 18.3465 15.4098C18.3309 15.4537 18.3153 15.5027 18.3022 15.5518C18.297 15.5673 18.2944 15.5828 18.2892 15.5983C18.2788 15.637 18.2684 15.6783 18.2579 15.717C18.2449 15.7712 18.2319 15.8228 18.2189 15.8771C18.2084 15.9184 18.2006 15.9571 18.1902 15.9984C18.185 16.0268 18.1772 16.0552 18.1694 16.0836C18.1615 16.1223 18.1537 16.161 18.1459 16.1972C18.1433 16.2075 18.1407 16.2178 18.1407 16.2256C18.1251 16.3107 18.1094 16.3959 18.0964 16.4785C18.0938 16.494 18.0912 16.5069 18.0886 16.5224C18.0782 16.5895 18.0677 16.6567 18.0599 16.7238C18.0573 16.7367 18.0573 16.7496 18.0547 16.7599C18.0521 16.7883 18.0469 16.8167 18.0443 16.8451C18.0365 16.9045 18.0313 16.9639 18.0261 17.0232C18.0234 17.0542 18.0208 17.0852 18.0182 17.1162C18.013 17.1755 18.0104 17.2349 18.0078 17.2943C18.0052 17.3201 18.0052 17.3485 18.0026 17.3743C18.0026 17.4621 18 17.5473 18 17.6325C18.0104 21.1639 21.4991 23.4614 22.4578 24.0268L24.1097 24.9768C23.1483 24.4114 19.6622 22.1139 19.6518 18.5824C19.6518 18.4973 19.6544 18.4121 19.657 18.3269C19.657 18.3011 19.6596 18.2727 19.6622 18.2469C19.6649 18.1875 19.6675 18.1281 19.6727 18.0687C19.6753 18.0378 19.6779 18.0068 19.6805 17.9758C19.6857 17.9164 19.6909 17.8571 19.6987 17.7977C19.7013 17.7693 19.7039 17.7409 19.7091 17.7125C19.7196 17.6325 19.73 17.5524 19.743 17.4724C19.7456 17.4569 19.7482 17.444 19.7508 17.4285C19.7639 17.3433 19.7795 17.2607 19.7951 17.1755C19.7977 17.1652 19.8003 17.1549 19.8003 17.1471C19.8134 17.08 19.829 17.0155 19.842 16.9484C19.8498 16.9071 19.8603 16.8683 19.8707 16.827C19.8837 16.7728 19.8967 16.7212 19.9098 16.667C19.9202 16.6283 19.9306 16.587 19.941 16.5482C19.9593 16.4863 19.9775 16.4217 19.9957 16.3572C20.0036 16.334 20.0088 16.3082 20.0166 16.2849C20.0426 16.1972 20.0713 16.1068 20.1026 16.019C20.1078 16.0035 20.113 15.9906 20.1182 15.9752C20.1442 15.9029 20.1703 15.828 20.1964 15.7557C20.2068 15.7273 20.2172 15.7015 20.2276 15.6731C20.2537 15.6086 20.2771 15.5415 20.3032 15.4769C20.311 15.4563 20.3214 15.433 20.3292 15.4124C20.3631 15.3272 20.3996 15.242 20.436 15.1594C20.4439 15.1439 20.4491 15.1284 20.4569 15.1129C20.4882 15.0432 20.5194 14.9735 20.5533 14.9013C20.5637 14.878 20.5767 14.8548 20.5872 14.8316C20.6236 14.7541 20.6627 14.6767 20.7018 14.6018C20.7044 14.5941 20.7096 14.5889 20.7122 14.5812C20.7539 14.4985 20.7982 14.4159 20.8425 14.3359C20.8555 14.3127 20.8659 14.292 20.879 14.2688C20.9154 14.2043 20.9519 14.1397 20.9884 14.0752C20.9988 14.0571 21.0092 14.0365 21.0223 14.0184C21.0692 13.9384 21.1187 13.8583 21.1656 13.7783C21.176 13.7628 21.1864 13.7473 21.1968 13.7318C21.2359 13.6673 21.2776 13.6054 21.3193 13.5408C21.3375 13.515 21.3531 13.4892 21.3714 13.4634C21.4105 13.4066 21.4495 13.3472 21.4886 13.2904C21.5043 13.2698 21.5173 13.2465 21.5329 13.2259C21.5876 13.151 21.6397 13.0736 21.6971 13.0013C21.6997 12.9987 21.7023 12.9935 21.7049 12.991C21.7622 12.9135 21.8195 12.8387 21.8794 12.7638C21.9081 12.7277 21.9368 12.6941 21.9628 12.658C21.9993 12.6141 22.0332 12.5702 22.0696 12.5263C22.0983 12.4902 22.1296 12.4566 22.1582 12.423C22.1973 12.3792 22.2338 12.3327 22.2729 12.2888C22.2859 12.2759 22.2963 12.2604 22.3093 12.2475C22.3693 12.1804 22.4318 12.1133 22.4943 12.0461C22.4969 12.0436 22.4969 12.0436 22.4995 12.041C22.5621 11.9764 22.622 11.9145 22.6845 11.85C22.6975 11.837 22.708 11.8241 22.721 11.8138C22.7757 11.7596 22.8304 11.708 22.8851 11.6563C22.9008 11.6434 22.9138 11.6279 22.9268 11.615C22.9946 11.5531 23.0649 11.4911 23.1326 11.4292C23.1509 11.4137 23.1691 11.3982 23.19 11.3801C23.2421 11.3362 23.2916 11.2924 23.3437 11.251C23.3697 11.2304 23.3958 11.2097 23.4218 11.1891C23.4687 11.153 23.513 11.1168 23.5599 11.0833C23.5886 11.0626 23.6146 11.0419 23.6433 11.0213C23.6902 10.9877 23.7345 10.9542 23.7814 10.9232C23.81 10.9051 23.8361 10.8845 23.8648 10.8664C23.9143 10.8328 23.9638 10.7993 24.0159 10.7683C24.0393 10.7528 24.0628 10.7373 24.0888 10.7218C24.1644 10.6754 24.2373 10.6289 24.3129 10.5876C24.3624 10.5592 24.4119 10.5308 24.4614 10.505C24.4744 10.4973 24.4901 10.4895 24.5031 10.4818C24.5422 10.4611 24.5786 10.443 24.6151 10.425C24.6281 10.4198 24.6412 10.4121 24.6542 10.4069C24.7037 10.3837 24.7506 10.3604 24.8001 10.3372C24.8079 10.3346 24.8157 10.3295 24.8235 10.3269C24.8652 10.3088 24.9043 10.2907 24.946 10.2753C24.9616 10.2701 24.9773 10.2623 24.9929 10.2572C25.0216 10.2469 25.0502 10.2339 25.0763 10.2236C25.0919 10.2185 25.1075 10.2107 25.1232 10.2056C25.1544 10.1952 25.1857 10.1823 25.217 10.172C25.23 10.1668 25.2404 10.1642 25.2534 10.1591C25.2951 10.1436 25.3394 10.1307 25.3811 10.1178C25.3889 10.1152 25.3967 10.1126 25.4045 10.11C25.4384 10.0997 25.4723 10.0894 25.5062 10.0816C25.5166 10.0791 25.5244 10.0765 25.5348 10.0739C25.5973 10.0584 25.6599 10.0429 25.7224 10.03C25.7276 10.03 25.7328 10.0274 25.738 10.0274C25.8032 10.0145 25.8657 10.0016 25.9282 9.99387H25.9308C25.9829 9.98612 26.0351 9.97838 26.0872 9.97322C26.0976 9.97322 26.108 9.97064 26.1184 9.97064C26.1679 9.96547 26.22 9.96289 26.2669 9.96031C26.2774 9.96031 26.2852 9.96031 26.2956 9.96031C26.3347 9.95773 26.3764 9.95773 26.4154 9.95773C26.4233 9.95773 26.4337 9.95773 26.4415 9.95773C26.4858 9.95773 26.5301 9.96031 26.5744 9.96289C26.5848 9.96289 26.5952 9.96547 26.6056 9.96547C26.6395 9.96805 26.676 9.97064 26.7099 9.9758C26.7203 9.9758 26.7281 9.97838 26.7385 9.97838C26.7776 9.9758 26.8193 9.98096 26.8584 9.98871C26.8662 9.99129 26.8766 9.99129 26.8844 9.99387C26.9157 9.99903 26.9469 10.0068 26.9808 10.0119C26.9912 10.0145 27.0017 10.0171 27.0121 10.0197C27.0512 10.03 27.0902 10.0378 27.1267 10.0507C27.1293 10.0507 27.1319 10.0532 27.1371 10.0532C27.171 10.0636 27.2049 10.0739 27.2414 10.0868C27.2518 10.0894 27.2622 10.0945 27.2726 10.0971C27.3039 10.1075 27.3325 10.1204 27.3612 10.1307C27.369 10.1333 27.3742 10.1359 27.382 10.1384C27.4185 10.1539 27.4524 10.1694 27.4863 10.1849C27.4941 10.1901 27.5045 10.1926 27.5123 10.1978C27.541 10.2107 27.567 10.2262 27.5931 10.2417C27.6061 10.2494 27.6217 10.2572 27.6348 10.2649L25.9856 9.31236Z" fill="white"/><path d="M24.3108 10.5845C26.8928 9.10789 28.9927 10.2928 29.0005 13.2331C29.011 16.7439 25.5458 23.035 24.5922 24.7C24.5271 24.8162 24.4385 24.9039 24.3499 24.9556C24.2613 25.0046 24.1753 25.0175 24.1076 24.9788C23.1488 24.4109 19.6628 22.1134 19.6524 18.5819C19.6445 15.6416 21.7289 12.0611 24.3108 10.5845ZM26.8381 14.5651C26.8797 12.9156 25.7334 12.2366 24.3186 13.0472C24.2926 13.0627 24.2639 13.0782 24.2353 13.0963C22.9195 13.8965 21.8513 15.7294 21.8122 17.2524C21.7706 18.902 22.9169 19.5809 24.3317 18.7704C24.3577 18.7549 24.3864 18.7394 24.415 18.7213C25.7334 17.9211 26.8016 16.0856 26.8381 14.5651Z" fill="#1B1F79"/></g><path d="M41.4206 18.1748L26.2499 26.9324C25.1356 27.5777 23.4517 27.6433 22.4887 27.0887L6.77845 18.0185C6.56165 17.8924 6.40535 17.7513 6.29947 17.5899C5.96671 18.1244 6.11797 18.6991 6.77845 19.0823L22.4887 28.1525C23.4517 28.7071 25.1356 28.6415 26.2499 27.9962L41.4206 19.2386C42.2878 18.7395 42.55 18.0437 42.1718 17.4941C42.0206 17.7412 41.7735 17.9782 41.4206 18.1748Z" fill="white"/><path d="M36.5596 24.9304C36.5596 25.3337 36.2773 25.8278 35.9243 26.0295C35.5714 26.2312 35.2891 26.0699 35.2891 25.6615C35.2891 25.2581 35.5714 24.764 35.9243 24.5624C36.2773 24.3607 36.5596 24.5271 36.5596 24.9304Z" fill="#FF7F5C"/><path d="M38.5987 23.7507C38.5987 24.1541 38.3163 24.6482 37.9634 24.8498C37.6105 25.0515 37.3281 24.8902 37.3281 24.4818C37.3281 24.0784 37.6105 23.5843 37.9634 23.3827C38.3163 23.181 38.5987 23.3474 38.5987 23.7507Z" fill="#FF7F5C"/><path d="M40.6455 22.5758C40.6455 22.9792 40.3632 23.4733 40.0103 23.675C39.6573 23.8766 39.375 23.7153 39.375 23.3069C39.375 22.9036 39.6573 22.4095 40.0103 22.2078C40.3582 22.0061 40.6455 22.1675 40.6455 22.5758Z" fill="#FF7F5C"/><defs><radialGradient id="paint0_radial_19303_81250" cx="0" cy="0" r="1" gradientUnits="userSpaceOnUse" gradientTransform="translate(7.12452 16.4836) scale(19.8604 19.8604)"><stop stop-color="#D4D8FF"/><stop offset="1" stop-color="#373B9C"/></radialGradient><linearGradient id="paint1_linear_19303_81250" x1="10.8743" y1="10.1147" x2="41.9836" y2="28.6616" gradientUnits="userSpaceOnUse"><stop stop-color="#D4E0FF"/><stop offset="0.796875" stop-color="#6361BB"/></linearGradient><clipPath id="clip0_19303_81250"><rect width="11" height="16" fill="white" transform="translate(18 9)"/></clipPath></defs></svg>