<svg width="516" height="221" viewBox="0 0 516 221" fill="none" xmlns="http://www.w3.org/2000/svg">
<rect y="0.320312" width="516" height="220" fill="#0D2D51"/>
<mask id="mask0_5087_193539" style="mask-type:alpha" maskUnits="userSpaceOnUse" x="0" y="0" width="516" height="221">
<rect y="0.320312" width="516" height="220" fill="#0D2D51"/>
</mask>
<g mask="url(#mask0_5087_193539)">
<path opacity="0.8" d="M621.734 22.631C620.995 22.2168 619.797 22.2168 619.059 22.631C618.505 22.9417 618.368 23.3962 618.648 23.7759L577.225 46.8699V76.0222L567.133 81.649V113.356L532.568 132.63L527.182 129.626L553.836 114.765V97.3845L553.729 97.3269L523.423 80.4293V74.5321L540.563 64.9758C541.302 65.2749 542.338 65.2404 543.005 64.8722C543.744 64.458 543.744 63.7906 543.005 63.3821C542.267 62.9678 541.069 62.9678 540.33 63.3821C539.663 63.756 539.604 64.3314 540.14 64.7456L523 74.302V80.6709L523.107 80.7285L553.413 97.6261V114.535L533.277 125.766V118.522L542.511 113.373C543.25 113.672 544.286 113.638 544.953 113.27C545.692 112.855 545.692 112.188 544.953 111.779C544.215 111.365 543.017 111.365 542.279 111.779C541.611 112.153 541.552 112.729 542.088 113.143L532.854 118.292V126.007L526.765 129.402L519.563 125.386V112.775L533.146 105.198V96.4812L533.038 96.4237L504.437 80.4753C504.973 80.0611 504.913 79.4857 504.246 79.1118C503.507 78.6975 502.31 78.6975 501.571 79.1118C500.832 79.526 500.832 80.1934 501.571 80.6019C502.238 80.9759 503.275 81.0046 504.014 80.7055L532.717 96.7113V104.956L519.557 112.297V103.604L519.449 103.546L501.952 93.7886C502.488 93.3744 502.429 92.799 501.762 92.4251C501.023 92.0108 499.825 92.0108 499.087 92.4251C498.348 92.8393 498.348 93.5067 499.087 93.9152C499.754 94.2892 500.791 94.3179 501.529 94.0187L519.134 103.834V125.139L514.076 122.32L505.741 126.968L498.193 122.757V112.527L498.086 112.47L478.128 101.343V91.7001C478.539 91.6771 478.938 91.5793 479.254 91.401C479.993 90.9867 479.993 90.3193 479.254 89.9108C478.516 89.4966 477.318 89.4966 476.579 89.9108C475.841 90.3251 475.841 90.9925 476.579 91.401C476.895 91.5793 477.294 91.6714 477.705 91.7001V101.579L477.813 101.636L497.77 112.763V122.521L465.29 104.409V85.2103L482.906 75.3894H499.075L499.122 75.3606L526.867 59.8955C527.605 60.1947 528.642 60.1602 529.309 59.792C530.048 59.3777 530.048 58.7103 529.309 58.3019C528.57 57.8876 527.373 57.8876 526.634 58.3019C525.967 58.6758 525.907 59.2512 526.444 59.6654L498.962 74.9866H483.639L534.605 46.5707C535.344 46.8699 536.381 46.8354 537.048 46.4672C537.787 46.0529 537.787 45.3856 537.048 44.9771C536.309 44.5628 535.112 44.5628 534.373 44.9771C533.706 45.351 533.646 45.9264 534.182 46.3406L464.855 84.9745V104.645L464.962 104.703L505.312 127.198L497.192 131.726L428.3 93.3168V70.3954L428.193 70.3379L404.762 57.2778C405.298 56.8635 405.238 56.2882 404.571 55.9142C403.832 55.5 402.635 55.5 401.896 55.9142C401.157 56.3285 401.157 56.9958 401.896 57.4043C402.563 57.7783 403.6 57.8071 404.339 57.5079L427.871 70.6313V93.5527L427.978 93.6103L496.763 131.962L489.031 136.271L420.901 98.282H380.271L354.88 84.123V62.3637C355.148 62.312 355.398 62.2314 355.612 62.1163C356.351 61.7021 356.351 61.0347 355.612 60.6262C354.874 60.212 353.676 60.212 352.938 60.6262C352.199 61.0405 352.199 61.7078 352.938 62.1163C353.355 62.3465 353.915 62.4443 354.457 62.4155V84.3588L354.564 84.4164L380.163 98.6905H420.793L478.307 130.76H466.738L447.108 119.817H431.988L431.94 119.846L410.969 131.536C410.231 131.237 409.194 131.272 408.527 131.64C407.788 132.054 407.788 132.722 408.527 133.13C409.266 133.544 410.463 133.544 411.202 133.13C411.869 132.756 411.929 132.181 411.392 131.767L432.101 120.22H446.994L466.624 131.162H479.04L488.613 136.502L467.977 148.008L462.109 144.735V136.145L447.203 127.831C447.739 127.417 447.68 126.842 447.012 126.468C446.274 126.053 445.076 126.053 444.337 126.468C443.599 126.882 443.599 127.549 444.337 127.958C445.005 128.332 446.041 128.361 446.78 128.061L461.686 136.375V144.493L445.785 135.627H438.255L438.207 135.656L429.229 140.661C428.49 140.362 427.454 140.397 426.787 140.765C426.048 141.179 426.048 141.846 426.787 142.255C427.525 142.669 428.723 142.669 429.462 142.255C430.129 141.881 430.188 141.306 429.652 140.891L438.368 136.036H445.666L467.548 148.233L463.574 150.448L476.258 157.519L470.318 160.833H461.334L454.906 157.248C455.418 156.84 455.347 156.27 454.692 155.902C453.953 155.488 452.755 155.488 452.017 155.902C451.278 156.316 451.278 156.984 452.017 157.392C452.69 157.766 453.744 157.795 454.489 157.484L461.221 161.235H469.585L454.435 169.681L418.798 149.809H393.151L393.103 149.838L378.662 157.887C377.923 157.588 376.887 157.622 376.219 157.99C375.481 158.405 375.481 159.072 376.219 159.481C376.958 159.895 378.156 159.895 378.894 159.481C379.562 159.107 379.621 158.531 379.085 158.117L393.264 150.212H418.678L446.166 165.539H434.4L422.902 159.13C423.438 158.715 423.379 158.14 422.712 157.766C421.973 157.352 420.776 157.352 420.037 157.766C419.298 158.18 419.298 158.848 420.037 159.256C420.704 159.63 421.741 159.659 422.479 159.36L434.287 165.947H446.899L454.006 169.911L435.913 179.997H378.09L333.165 154.947C333.701 154.533 333.641 153.957 332.974 153.583C332.235 153.169 331.038 153.169 330.299 153.583C329.56 153.998 329.56 154.665 330.299 155.073C330.966 155.447 332.003 155.476 332.742 155.177L377.977 180.4H435.181L428.002 184.404H385.197L385.15 184.433L364.042 196.204C363.304 195.905 362.267 195.94 361.6 196.308C360.861 196.722 360.861 197.389 361.6 197.798C362.338 198.212 363.536 198.212 364.275 197.798C364.942 197.424 365.001 196.849 364.465 196.434L385.317 184.813H428.121L428.169 184.784L476.681 157.737L482.066 160.741L431.064 189.179H393.764L393.717 189.208L348.666 214.327H286.249L274.191 207.642V208.114L286.142 214.776H348.785L348.833 214.747L377.107 198.983V208.315L358.472 218.706C357.733 218.406 356.697 218.441 356.029 218.809C355.291 219.223 355.291 219.891 356.029 220.299C356.768 220.714 357.966 220.714 358.704 220.299C359.372 219.925 359.431 219.35 358.895 218.936L377.53 208.545V198.799H377.435L393.889 189.622H431.189L431.237 189.594L482.501 161.011L488.619 164.423L389.153 219.879V229.902H389.576V220.115L489.042 164.659L496.602 168.876L445.297 197.482V202.596L436.199 207.671V219.436L418.559 229.275C417.821 228.975 416.784 229.01 416.117 229.378C415.849 229.528 415.676 229.712 415.604 229.907H419.292C419.238 229.764 419.137 229.631 418.982 229.51L436.622 219.672V207.907L445.297 203.068V221.905L450.414 224.758L441.192 229.902H442.038L450.837 224.994L459.636 229.902H460.482L445.708 221.674V197.723L497.014 169.117L503.894 172.955L467.589 193.195C466.851 192.896 465.814 192.931 465.147 193.299C464.408 193.713 464.408 194.38 465.147 194.789C465.886 195.203 467.083 195.203 467.822 194.789C468.489 194.415 468.549 193.84 468.012 193.425L504.323 173.179L510.966 176.884L467.53 201.1H455.728C455.657 200.905 455.484 200.715 455.21 200.56C454.471 200.145 453.274 200.145 452.535 200.56C451.796 200.974 451.796 201.641 452.535 202.05C453.274 202.464 454.471 202.464 455.21 202.05C455.484 201.894 455.657 201.704 455.728 201.509H467.643L467.691 201.48L511.383 177.12L514.064 178.616L516.125 177.466L526.533 183.271V191.348L517.936 196.141V196.118H504.443L504.395 196.147L489.59 204.403C488.852 204.104 487.815 204.138 487.148 204.506C486.409 204.921 486.409 205.588 487.148 205.996C487.887 206.411 489.084 206.411 489.823 205.996C490.49 205.623 490.55 205.047 490.013 204.633L504.556 196.526H517.239L491.962 210.616C491.217 210.294 490.15 210.317 489.465 210.697C488.727 211.111 488.727 211.779 489.465 212.187C490.204 212.601 491.402 212.601 492.14 212.187C492.79 211.825 492.867 211.267 492.373 210.852L523.9 193.276V197.159L505.146 207.619V215L489.876 223.515C489.138 223.216 488.101 223.251 487.434 223.619C486.695 224.033 486.695 224.701 487.434 225.109C488.173 225.523 489.37 225.523 490.109 225.109C490.776 224.735 490.836 224.16 490.299 223.746L505.569 215.231V207.866L524.323 197.407V193.051L526.95 191.584V183.035L516.542 177.235L523.381 173.421L544.793 185.359V198.931L530.25 207.038C529.506 206.716 528.439 206.739 527.754 207.118C527.015 207.533 527.015 208.2 527.754 208.609C528.493 209.023 529.69 209.023 530.429 208.609C531.078 208.246 531.156 207.688 530.661 207.274L544.787 199.397V210.363L533.628 216.588V229.902H534.051V216.824L544.787 210.835V229.896H545.21V185.118L523.798 173.179L531.478 168.899L559.466 184.502V221.669L572.918 229.171V229.902H573.341V228.935L559.889 221.433V184.266L531.901 168.663L537.59 165.487L575.361 186.544V218.251L596.242 229.896H597.087L575.783 218.015V186.308L538.013 165.251L547.235 160.108L610.081 195.146V210.921L631.641 222.946V222.474L610.528 210.703V194.927L575.182 175.216H603.134L631.641 191.107V190.635L603.248 174.802H574.449L547.688 159.883L558.411 153.906L581.407 166.73H618.344L631.641 174.14V173.668L628.728 172.046H631.641V171.637H627.995L618.463 166.321H581.527L575.086 162.731H590.79L590.838 162.702L598.714 158.313H631.534L631.641 158.376V157.904H599.447L608.311 152.962C609.05 153.261 610.087 153.227 610.754 152.858C611.493 152.444 611.493 151.777 610.754 151.368C610.015 150.954 608.818 150.954 608.079 151.368C607.412 151.742 607.352 152.318 607.888 152.732L590.671 162.334H574.348L558.823 153.681L564.56 150.482L560.866 148.423H571.595L585.619 156.241C585.083 156.656 585.143 157.231 585.81 157.605C586.549 158.019 587.746 158.019 588.485 157.605C589.224 157.191 589.224 156.523 588.485 156.115C587.818 155.741 586.781 155.712 586.042 156.011L571.709 148.02H560.133L552.281 143.642L557.107 140.949H565.668L573.198 136.749H578.816L591.505 143.826C590.933 144.24 590.981 144.832 591.66 145.212C592.399 145.626 593.596 145.626 594.335 145.212C595.074 144.798 595.074 144.131 594.335 143.722C593.68 143.36 592.673 143.319 591.934 143.595L578.929 136.346H573.085L565.555 140.546H557.84L573.275 131.939H581.61L598.982 141.622H631.635V141.214H599.095L581.723 131.531H573.162L573.115 131.559L551.858 143.411L546.282 140.305L570.303 126.911H587.246L601.222 134.701H631.641V134.292H601.341L588.098 126.911H631.641V126.502H570.195L570.148 126.531L545.871 140.069L539.532 136.536L573.025 117.861H631.641V117.452H588.926L631.641 93.6333V93.1615L588.08 117.452H573.335L605.088 99.7491V95.8483L620.286 87.3794C621.025 87.6785 622.061 87.644 622.729 87.2758C623.467 86.8616 623.467 86.1942 622.729 85.7857C621.99 85.3714 620.792 85.3714 620.054 85.7857C619.386 86.1596 619.327 86.735 619.863 87.1492L611.588 91.7634V81.0679L631.641 69.8489V69.3771L611.159 80.7975V91.9648L604.659 95.5894V99.4902L572.644 117.343L572.751 117.521L539.103 136.283L532.985 132.871L567.55 113.597V81.8907L631.641 46.1507V45.679L577.648 75.7863V47.1058L618.975 24.0636C619.005 24.0808 619.029 24.1039 619.059 24.1211C619.797 24.5354 620.995 24.5354 621.734 24.1211C622.472 23.7069 622.472 23.0395 621.734 22.631ZM563.72 150.471L514.07 178.156L464.426 150.477L514.076 122.791L563.72 150.471Z" fill="#57A3DB" fill-opacity="0.5"/>
</g>
</svg>
